<svg 
 xmlns="http://www.w3.org/2000/svg"
 xmlns:xlink="http://www.w3.org/1999/xlink"
 width="33px" height="17px">
<path fill-rule="evenodd"  fill="rgb(255, 255, 255)"
 d="M30.186,14.105 C29.889,15.749 28.492,17.000 26.813,17.000 C25.153,17.000 23.764,15.781 23.445,14.167 L9.555,14.167 C9.236,15.781 7.847,17.000 6.187,17.000 C4.507,17.000 3.109,15.747 2.813,14.101 C1.216,13.797 0.000,12.357 0.000,10.625 L0.000,7.791 C0.000,5.839 1.543,4.250 3.437,4.250 C4.067,4.250 4.653,3.927 5.004,3.387 L6.174,1.577 C6.813,0.589 7.881,-0.000 9.034,-0.000 L18.972,-0.000 C19.749,-0.000 20.512,0.276 21.120,0.776 L26.537,5.241 C26.870,5.516 27.287,5.666 27.712,5.666 L28.875,5.666 C31.555,5.666 33.000,8.221 33.000,10.625 C33.000,12.422 31.826,13.819 30.186,14.105 ZM24.750,13.458 C24.750,14.630 25.675,15.583 26.813,15.583 C27.950,15.583 28.875,14.630 28.875,13.458 C28.875,12.287 27.950,11.333 26.813,11.333 C25.675,11.333 24.750,12.287 24.750,13.458 C24.750,13.458 24.750,13.458 24.750,13.458 C24.750,13.458 24.750,13.458 24.750,13.458 ZM6.187,15.583 C7.325,15.583 8.250,14.630 8.250,13.458 C8.250,12.287 7.325,11.333 6.187,11.333 C5.050,11.333 4.125,12.287 4.125,13.458 C4.125,14.630 5.050,15.583 6.187,15.583 ZM28.875,7.083 L27.713,7.083 C26.976,7.083 26.253,6.821 25.679,6.346 L20.262,1.883 C19.896,1.582 19.440,1.416 18.972,1.416 L9.034,1.416 C8.343,1.416 7.701,1.771 7.318,2.363 L6.148,4.172 C5.541,5.108 4.529,5.666 3.437,5.666 C2.300,5.666 1.375,6.620 1.375,7.791 L1.375,10.625 C1.375,11.584 1.999,12.388 2.849,12.651 C3.205,11.088 4.563,9.917 6.187,9.917 C7.847,9.917 9.236,11.136 9.555,12.750 L23.445,12.750 C23.764,11.136 25.153,9.917 26.813,9.917 C28.439,9.917 29.800,11.092 30.154,12.659 C30.951,12.432 31.625,11.748 31.625,10.624 C31.625,9.201 30.892,7.083 28.875,7.083 ZM22.687,7.083 L15.812,7.083 C15.433,7.083 15.125,6.766 15.125,6.375 L15.125,3.542 C15.125,3.150 15.433,2.833 15.812,2.833 C16.192,2.833 16.500,3.150 16.500,3.542 L16.500,5.666 L22.687,5.666 C23.067,5.666 23.375,5.984 23.375,6.375 C23.375,6.766 23.067,7.083 22.687,7.083 ZM13.062,7.083 L7.563,7.083 C7.325,7.083 7.103,6.955 6.978,6.747 C6.853,6.539 6.841,6.277 6.948,6.059 L8.323,3.226 C8.493,2.874 8.904,2.734 9.245,2.908 C9.585,3.084 9.723,3.509 9.553,3.859 L8.675,5.666 L13.063,5.666 C13.442,5.666 13.750,5.984 13.750,6.375 C13.750,6.766 13.442,7.083 13.062,7.083 ZM17.188,8.500 L18.562,8.500 C18.942,8.500 19.250,8.817 19.250,9.208 C19.250,9.599 18.942,9.917 18.562,9.917 L17.188,9.917 C16.808,9.917 16.500,9.599 16.500,9.208 C16.500,8.817 16.808,8.500 17.188,8.500 Z"/>
</svg>