<svg 
 xmlns="http://www.w3.org/2000/svg"
 xmlns:xlink="http://www.w3.org/1999/xlink"
 width="30px" height="27px">
<path fill-rule="evenodd"  fill="rgb(255, 255, 255)"
 d="M29.945,21.414 C29.863,21.259 29.703,21.163 29.528,21.163 L17.838,21.163 L17.838,17.233 L27.914,17.233 C28.090,17.233 28.251,17.135 28.333,16.978 C28.414,16.821 28.403,16.632 28.304,16.486 L17.838,1.095 L17.838,0.477 C17.838,0.213 17.626,-0.000 17.365,-0.000 C17.104,-0.000 16.892,0.213 16.892,0.477 L16.892,3.694 L10.304,15.711 C10.223,15.859 10.225,16.038 10.310,16.184 C10.396,16.329 10.550,16.419 10.718,16.419 L15.794,16.419 C16.055,16.419 16.267,16.205 16.267,15.942 C16.267,15.678 16.055,15.464 15.794,15.464 L11.520,15.464 L16.892,5.665 L16.892,21.162 L15.927,21.162 L15.927,20.927 C15.927,19.262 14.583,17.906 12.932,17.906 L9.016,17.906 L9.016,7.162 C9.016,7.161 9.016,7.161 9.016,7.160 L9.016,6.874 C9.016,6.610 8.805,6.397 8.543,6.397 C8.282,6.397 8.070,6.610 8.070,6.874 L8.070,7.014 L1.695,16.488 C1.597,16.634 1.587,16.823 1.668,16.979 C1.751,17.135 1.911,17.233 2.086,17.233 L6.929,17.233 C7.190,17.233 7.402,17.019 7.402,16.756 C7.402,16.492 7.190,16.279 6.929,16.279 L2.979,16.279 L8.070,8.712 L8.070,17.906 L6.929,17.906 C6.668,17.906 6.456,18.120 6.456,18.383 L6.456,19.534 L3.701,19.534 C3.439,19.534 3.228,19.748 3.228,20.012 L3.228,21.163 L0.472,21.163 C0.320,21.163 0.177,21.236 0.089,21.360 C-0.000,21.485 -0.025,21.645 0.023,21.790 L1.638,26.674 C1.702,26.868 1.883,27.000 2.086,27.000 L26.300,27.000 C26.458,27.000 26.606,26.920 26.693,26.787 L29.922,21.904 C30.019,21.757 30.028,21.569 29.945,21.414 ZM27.016,16.279 L17.838,16.279 L17.838,3.823 C17.838,3.821 17.838,3.820 17.838,3.820 L17.838,2.781 L27.016,16.279 ZM26.047,26.046 L2.427,26.046 L1.128,22.116 L13.556,22.116 C13.817,22.116 14.029,21.903 14.029,21.639 C14.029,21.376 13.817,21.163 13.556,21.163 L4.174,21.163 L4.174,20.488 L6.929,20.488 C7.190,20.488 7.402,20.275 7.402,20.012 L7.402,18.860 L12.932,18.860 C13.531,18.860 14.070,19.121 14.445,19.535 L8.947,19.535 C8.686,19.535 8.474,19.748 8.474,20.012 C8.474,20.275 8.686,20.488 8.947,20.488 L14.934,20.488 C14.965,20.630 14.981,20.777 14.981,20.927 L14.981,21.639 C14.981,21.903 15.193,22.116 15.454,22.116 C15.481,22.116 15.507,22.113 15.532,22.109 C15.557,22.113 15.583,22.116 15.610,22.116 L28.645,22.116 L26.047,26.046 Z"/>
</svg>