<svg 
 xmlns="http://www.w3.org/2000/svg"
 xmlns:xlink="http://www.w3.org/1999/xlink"
 width="27px" height="27px">
<path fill-rule="evenodd"  fill="rgb(255, 255, 255)"
 d="M26.970,2.346 L26.919,1.862 C26.817,0.869 25.999,0.105 24.977,0.029 L24.568,0.003 C23.342,-0.048 22.141,0.410 21.272,1.276 L17.184,5.326 L3.795,5.300 C2.671,5.300 1.572,5.759 0.755,6.574 L0.192,7.134 C0.014,7.312 -0.063,7.618 -0.012,7.873 C0.065,8.128 0.244,8.332 0.499,8.408 L11.154,11.311 L8.675,13.782 L4.178,13.934 C3.719,13.934 3.284,14.113 2.952,14.469 L2.518,14.902 C2.339,15.080 2.262,15.361 2.313,15.615 C2.390,15.870 2.569,16.048 2.799,16.150 L8.522,18.315 L10.822,24.224 C10.924,24.479 11.154,24.657 11.409,24.682 C11.665,24.708 11.895,24.631 12.074,24.428 L12.534,23.969 C12.840,23.664 13.019,23.256 13.070,22.746 L13.224,18.239 L15.728,15.794 L18.615,26.440 C18.692,26.694 18.896,26.898 19.151,26.974 C19.228,27.000 19.279,27.000 19.356,27.000 C19.560,27.000 19.765,26.924 19.918,26.771 L20.480,26.210 C21.298,25.396 21.758,24.300 21.758,23.154 L21.758,9.808 L25.718,5.836 C26.664,4.919 27.124,3.619 26.970,2.346 ZM25.003,5.122 L20.864,9.248 C20.761,9.350 20.710,9.477 20.710,9.605 L20.710,23.154 C20.710,24.046 20.352,24.860 19.739,25.497 L19.484,25.752 L16.443,14.724 C16.392,14.546 16.264,14.418 16.085,14.367 C16.034,14.367 16.009,14.342 15.958,14.342 C15.830,14.342 15.702,14.393 15.600,14.495 L12.329,17.704 C12.227,17.806 12.176,17.907 12.176,18.060 L12.023,22.746 C12.023,22.900 11.972,23.129 11.793,23.281 L11.614,23.460 L9.391,17.729 C9.340,17.602 9.238,17.500 9.084,17.449 L3.540,15.335 L3.693,15.182 C3.770,15.106 3.974,14.953 4.230,14.953 L8.957,14.800 C9.084,14.800 9.212,14.749 9.289,14.647 L12.534,11.413 C12.662,11.286 12.713,11.107 12.662,10.929 C12.610,10.751 12.483,10.624 12.304,10.572 L1.214,7.542 L1.470,7.287 C2.083,6.676 2.926,6.319 3.795,6.319 L17.389,6.345 C17.516,6.345 17.644,6.294 17.746,6.192 L21.988,1.990 C22.652,1.327 23.572,0.971 24.517,1.022 L24.926,1.047 C25.437,1.073 25.846,1.480 25.897,1.964 L25.948,2.448 C26.050,3.441 25.718,4.409 25.003,5.122 Z"/>
</svg>