<svg 
 xmlns="http://www.w3.org/2000/svg"
 xmlns:xlink="http://www.w3.org/1999/xlink"
 width="33px" height="33px">
<path fill-rule="evenodd"  fill="rgb(255, 255, 255)"
 d="M16.500,33.000 C7.386,33.000 -0.000,25.612 -0.000,16.500 C-0.000,13.989 0.567,11.614 1.571,9.483 C0.703,8.131 -0.000,6.684 -0.000,5.536 C-0.000,2.484 2.532,-0.000 5.645,-0.000 C7.158,-0.000 8.530,0.590 9.545,1.544 C11.659,0.558 14.013,-0.000 16.500,-0.000 C25.614,-0.000 33.000,7.388 33.000,16.500 C33.000,25.612 25.614,33.000 16.500,33.000 ZM5.645,1.303 C3.247,1.303 1.303,3.197 1.303,5.536 C1.303,7.874 5.645,12.592 5.645,12.592 C5.645,12.592 9.987,7.874 9.987,5.536 C9.987,3.197 8.043,1.303 5.645,1.303 ZM10.411,2.582 C10.964,3.438 11.289,4.450 11.289,5.536 C11.289,8.245 7.386,12.624 6.603,13.474 L5.645,14.516 L4.686,13.474 C4.342,13.100 3.393,12.042 2.439,10.744 C1.709,12.521 1.303,14.463 1.303,16.500 C1.303,19.136 1.979,21.617 3.162,23.781 C3.489,23.395 3.949,22.917 4.304,22.597 L4.837,22.118 C4.939,22.029 5.096,21.831 5.216,21.619 C5.340,21.408 5.433,21.174 5.459,21.040 L5.576,20.477 C5.583,20.441 5.589,20.396 5.588,20.343 C5.589,20.218 5.559,20.052 5.506,19.907 C5.453,19.760 5.375,19.635 5.321,19.582 L4.731,18.966 L4.732,18.967 C4.485,18.713 4.338,18.373 4.339,18.026 C4.339,17.796 4.404,17.566 4.523,17.368 C4.642,17.170 4.813,17.005 5.016,16.886 L6.070,16.262 C6.400,16.069 6.759,15.998 7.112,15.996 C7.496,15.999 7.883,16.081 8.232,16.302 L9.285,16.980 C9.359,17.033 9.558,17.093 9.749,17.090 C9.908,17.092 10.057,17.052 10.124,17.014 L11.410,16.332 C11.505,16.284 11.671,16.143 11.798,15.975 C11.927,15.809 12.021,15.612 12.042,15.507 L12.242,14.638 L12.251,14.603 C12.270,14.522 12.283,14.395 12.283,14.256 C12.283,14.098 12.267,13.923 12.238,13.765 C12.209,13.607 12.165,13.465 12.127,13.383 L11.391,11.782 C11.297,11.577 11.252,11.359 11.252,11.149 C11.252,10.574 11.578,10.023 12.135,9.764 L13.877,8.960 C13.964,8.924 14.121,8.799 14.238,8.644 C14.359,8.492 14.440,8.310 14.454,8.216 L14.711,6.815 L14.711,6.817 C14.718,6.775 14.724,6.716 14.724,6.649 C14.724,6.502 14.697,6.313 14.648,6.144 C14.601,5.974 14.529,5.822 14.474,5.749 L13.484,4.357 L13.485,4.358 C13.229,3.992 13.132,3.577 13.129,3.165 C13.130,2.837 13.194,2.506 13.364,2.196 L13.718,1.561 C12.565,1.777 11.457,2.123 10.411,2.582 ZM16.500,1.302 C16.104,1.302 15.713,1.323 15.324,1.354 L14.502,2.832 C14.467,2.891 14.430,3.024 14.431,3.167 C14.428,3.347 14.491,3.534 14.545,3.603 L14.545,3.603 L15.535,4.994 C15.707,5.237 15.819,5.505 15.901,5.786 C15.981,6.067 16.027,6.359 16.027,6.650 C16.027,6.783 16.017,6.916 15.993,7.049 L15.993,7.051 L15.735,8.451 C15.664,8.828 15.490,9.154 15.267,9.443 C15.043,9.731 14.770,9.980 14.424,10.144 L12.682,10.948 C12.604,10.981 12.555,11.064 12.555,11.149 L12.574,11.235 L12.575,11.237 L13.311,12.839 C13.410,13.057 13.474,13.288 13.519,13.527 C13.563,13.767 13.586,14.013 13.587,14.256 C13.586,14.471 13.568,14.681 13.523,14.886 L13.313,15.800 C13.227,16.161 13.051,16.479 12.832,16.768 C12.610,17.054 12.349,17.306 12.022,17.483 L10.735,18.165 C10.419,18.330 10.084,18.390 9.750,18.392 C9.348,18.389 8.944,18.305 8.580,18.075 L7.528,17.397 C7.460,17.349 7.287,17.296 7.113,17.298 C6.953,17.296 6.799,17.341 6.736,17.382 L6.735,17.382 L5.680,18.006 L5.649,18.032 L5.672,18.063 L5.673,18.064 L6.264,18.680 C6.482,18.909 6.627,19.176 6.731,19.458 C6.833,19.740 6.892,20.039 6.893,20.342 C6.893,20.473 6.881,20.603 6.855,20.733 L6.860,20.708 L6.855,20.734 C6.855,20.735 6.855,20.736 6.854,20.737 L6.736,21.306 C6.664,21.640 6.523,21.961 6.347,22.268 C6.169,22.574 5.962,22.857 5.709,23.087 L5.176,23.565 C4.858,23.849 4.328,24.405 4.071,24.724 C4.003,24.807 3.940,24.886 3.881,24.959 C5.709,27.677 8.392,29.771 11.540,30.862 L12.221,28.514 C12.230,28.485 12.237,28.443 12.236,28.393 C12.237,28.300 12.211,28.178 12.163,28.076 C12.117,27.973 12.050,27.895 12.003,27.861 L11.159,27.228 C10.761,26.929 10.551,26.469 10.552,26.010 C10.552,25.695 10.651,25.372 10.855,25.100 L13.164,22.022 C13.483,21.600 13.967,21.390 14.451,21.389 C14.735,21.389 15.027,21.463 15.288,21.626 L16.049,22.102 C16.326,22.277 16.528,22.519 16.666,22.785 C16.804,23.052 16.882,23.348 16.882,23.657 C16.882,23.812 16.862,23.973 16.814,24.133 L16.476,25.262 L16.474,25.267 L16.468,25.306 L16.468,25.313 L16.470,25.313 L16.518,25.324 L18.417,25.470 L18.458,25.471 C18.573,25.473 18.767,25.433 18.938,25.357 C19.111,25.285 19.263,25.175 19.322,25.105 L20.316,23.986 C18.655,21.868 16.500,18.694 16.500,16.500 C16.500,12.908 19.422,9.987 23.014,9.987 C25.496,9.987 27.656,11.383 28.755,13.430 L28.876,13.408 C29.023,13.382 29.171,13.373 29.320,13.373 C29.594,13.373 29.874,13.407 30.147,13.469 C30.419,13.532 30.679,13.619 30.920,13.752 L31.502,14.075 C30.337,6.844 24.055,1.302 16.500,1.302 ZM23.013,25.184 C23.013,25.184 28.224,19.377 28.224,16.500 C28.224,13.621 25.891,11.290 23.013,11.290 C20.135,11.290 17.803,13.621 17.803,16.500 C17.803,19.377 23.013,25.184 23.013,25.184 ZM30.287,14.890 C30.200,14.840 30.036,14.778 29.857,14.739 C29.678,14.698 29.481,14.675 29.320,14.675 C29.299,14.675 29.282,14.677 29.262,14.677 C29.431,15.256 29.527,15.867 29.527,16.500 C29.527,19.713 24.909,25.022 23.983,26.054 L23.013,27.134 L22.044,26.054 C21.864,25.854 21.544,25.491 21.147,25.014 L20.296,25.971 C20.058,26.234 19.767,26.418 19.454,26.554 C19.141,26.688 18.807,26.773 18.458,26.774 C18.411,26.774 18.365,26.773 18.317,26.769 L16.418,26.623 C16.078,26.598 15.754,26.454 15.524,26.212 C15.293,25.973 15.164,25.641 15.165,25.306 C15.165,25.168 15.186,25.025 15.229,24.885 L15.566,23.759 C15.574,23.734 15.580,23.699 15.580,23.657 C15.581,23.576 15.555,23.471 15.510,23.385 C15.465,23.297 15.403,23.233 15.358,23.207 L14.597,22.731 C14.559,22.707 14.509,22.692 14.451,22.692 C14.349,22.691 14.249,22.742 14.206,22.804 L11.897,25.882 C11.868,25.921 11.855,25.963 11.855,26.010 C11.855,26.080 11.885,26.145 11.940,26.186 L12.784,26.819 C13.041,27.013 13.221,27.263 13.346,27.530 C13.470,27.800 13.538,28.091 13.539,28.393 C13.539,28.553 13.519,28.714 13.473,28.877 L12.788,31.236 C13.976,31.536 15.220,31.697 16.500,31.697 C24.880,31.697 31.697,24.880 31.698,16.500 C31.698,16.218 31.689,15.938 31.673,15.660 L30.287,14.890 ZM15.229,24.885 L15.228,24.888 L15.229,24.883 L15.229,24.885 ZM23.013,13.461 C24.452,13.461 25.618,14.626 25.618,16.066 C25.618,17.505 24.452,18.671 23.013,18.671 C21.574,18.671 20.408,17.505 20.408,16.066 C20.408,14.626 21.574,13.461 23.013,13.461 ZM23.013,17.368 C23.731,17.368 24.316,16.784 24.316,16.066 C24.316,15.347 23.731,14.763 23.013,14.763 C22.295,14.763 21.711,15.347 21.711,16.066 C21.711,16.784 22.295,17.368 23.013,17.368 ZM13.523,14.890 L13.529,14.859 L13.524,14.886 L13.523,14.890 ZM6.070,16.261 L6.070,16.262 L6.070,16.262 L6.070,16.261 ZM3.582,5.210 C3.582,4.010 4.553,3.039 5.753,3.039 C6.952,3.039 7.924,4.011 7.924,5.210 C7.924,6.409 6.953,7.381 5.753,7.381 C4.553,7.381 3.582,6.409 3.582,5.210 ZM5.753,6.078 C6.232,6.078 6.622,5.689 6.622,5.210 C6.622,4.731 6.232,4.341 5.753,4.341 C5.274,4.341 4.885,4.731 4.885,5.210 C4.885,5.689 5.274,6.079 5.753,6.078 Z"/>
</svg>