<svg version="1.1" id="Layer_1" xmlns="http://www.w3.org/2000/svg" xmlns:xlink="http://www.w3.org/1999/xlink" x="0px" y="0px"
	 viewBox="0 0 1009.8 488.4" style="enable-background:new 0 0 1009.8 488.4;" xml:space="preserve">
<style type="text/css">
	.st0{clip-path:url(#SVGID_2_);}
	.st1{clip-path:url(#SVGID_4_);fill:#F9EDFF;}
	.st2{opacity:0.1;clip-path:url(#SVGID_4_);}
	.st3{clip-path:url(#SVGID_6_);}
	.st4{clip-path:url(#SVGID_8_);fill:url(#SVGID_9_);}
	.st5{clip-path:url(#SVGID_11_);}
	.st6{clip-path:url(#SVGID_13_);fill:url(#SVGID_14_);}
	.st7{clip-path:url(#SVGID_4_);fill:#030408;}
	.st8{clip-path:url(#SVGID_4_);fill:#510394;}
	.st9{clip-path:url(#SVGID_4_);fill:#FDFFFF;}
	.st10{clip-path:url(#SVGID_16_);fill:url(#SVGID_17_);}
	.st11{clip-path:url(#SVGID_19_);fill:#F0DBFC;}
	.st12{clip-path:url(#SVGID_19_);fill:#EAD2F9;}
	.st13{clip-path:url(#SVGID_19_);fill:#FFFFFF;}
	.st14{clip-path:url(#SVGID_19_);fill:#9909B7;}
	.st15{clip-path:url(#SVGID_19_);fill:#D3D6DB;}
	.st16{clip-path:url(#SVGID_21_);fill:url(#SVGID_22_);}
	.st17{clip-path:url(#SVGID_24_);fill:url(#SVGID_25_);}
	.st18{clip-path:url(#SVGID_27_);fill:#7500B2;}
	.st19{clip-path:url(#SVGID_29_);fill:url(#SVGID_30_);}
	.st20{clip-path:url(#SVGID_32_);fill:url(#SVGID_33_);}
	.st21{clip-path:url(#SVGID_35_);fill:#7500B2;}
	.st22{clip-path:url(#SVGID_37_);fill:url(#SVGID_38_);}
	.st23{clip-path:url(#SVGID_40_);fill:url(#SVGID_41_);}
	.st24{clip-path:url(#SVGID_43_);fill:url(#SVGID_44_);}
	.st25{clip-path:url(#SVGID_46_);fill:#192B59;}
	.st26{clip-path:url(#SVGID_46_);fill:#F2DAD4;}
	.st27{clip-path:url(#SVGID_48_);fill:url(#SVGID_49_);}
	.st28{clip-path:url(#SVGID_51_);fill:url(#SVGID_52_);}
	.st29{clip-path:url(#SVGID_54_);fill:#E64D4E;}
	.st30{clip-path:url(#SVGID_54_);fill:#F2DAD4;}
	.st31{clip-path:url(#SVGID_56_);fill:url(#SVGID_57_);}
	.st32{clip-path:url(#SVGID_59_);fill:#E64D4E;}
	.st33{clip-path:url(#SVGID_59_);fill:#F2DAD4;}
	.st34{clip-path:url(#SVGID_61_);fill:url(#SVGID_62_);}
	.st35{clip-path:url(#SVGID_64_);fill:url(#SVGID_65_);}
	.st36{clip-path:url(#SVGID_67_);fill:url(#SVGID_68_);}
	.st37{clip-path:url(#SVGID_70_);fill:#192B59;}
	.st38{clip-path:url(#SVGID_72_);fill:url(#SVGID_73_);}
	.st39{clip-path:url(#SVGID_75_);fill:url(#SVGID_76_);}
	.st40{clip-path:url(#SVGID_78_);fill:#E64D4E;}
	.st41{clip-path:url(#SVGID_80_);fill:url(#SVGID_81_);}
	.st42{clip-path:url(#SVGID_83_);fill:#F2DAD4;}
	.st43{clip-path:url(#SVGID_85_);fill:url(#SVGID_86_);}
	.st44{clip-path:url(#SVGID_88_);fill:url(#SVGID_89_);}
	.st45{clip-path:url(#SVGID_91_);fill:#E64D4E;}
	.st46{clip-path:url(#SVGID_91_);fill:#F2DAD4;}
	.st47{clip-path:url(#SVGID_93_);fill:url(#SVGID_94_);}
	.st48{clip-path:url(#SVGID_96_);fill:url(#SVGID_97_);}
	.st49{clip-path:url(#SVGID_99_);fill:url(#SVGID_100_);}
	.st50{clip-path:url(#SVGID_102_);fill:#192B59;}
	.st51{clip-path:url(#SVGID_104_);fill:url(#SVGID_105_);}
	.st52{clip-path:url(#SVGID_107_);fill:#F2DAD4;}
	.st53{clip-path:url(#SVGID_109_);fill:url(#SVGID_110_);}
	.st54{clip-path:url(#SVGID_112_);fill:url(#SVGID_113_);}
	.st55{clip-path:url(#SVGID_115_);fill:#E64D4E;}
	.st56{clip-path:url(#SVGID_115_);fill:#F2DAD4;}
	.st57{clip-path:url(#SVGID_117_);fill:url(#SVGID_118_);}
	.st58{clip-path:url(#SVGID_120_);fill:url(#SVGID_121_);}
	.st59{clip-path:url(#SVGID_123_);fill:#E64D4E;}
	.st60{clip-path:url(#SVGID_123_);fill:#F2DAD4;}
	.st61{clip-path:url(#SVGID_125_);fill:url(#SVGID_126_);}
	.st62{clip-path:url(#SVGID_128_);fill:#B23036;}
	.st63{clip-path:url(#SVGID_128_);fill:#F2DAD4;}
</style>
<g>
	<defs>
		<rect id="SVGID_1_" width="1009.8" height="488.4"/>
	</defs>
	<clipPath id="SVGID_2_">
		<use xlink:href="#SVGID_1_"  style="overflow:visible;"/>
	</clipPath>
	<g class="st0">
		<defs>
			<rect id="SVGID_3_" width="1009.8" height="488.4"/>
		</defs>
		<clipPath id="SVGID_4_">
			<use xlink:href="#SVGID_3_"  style="overflow:visible;"/>
		</clipPath>
		<path class="st1" d="M184.1,438.8c107.9,18.7,141.3-104.9,288.4-121.7c171.3-19.5,243.9,134.7,360.9,99.8
			c131.2-39.2,224-288.4,150.4-380C893.7-75.1,633.7,147.2,162.3,139.5c-50.5-0.8-127.8-4.7-153.1,38.3
			C-30.7,245.5,65.6,418.3,184.1,438.8"/>
		<g class="st2">
			<g>
				<defs>
					<rect id="SVGID_5_" x="365.6" y="472.4" width="614.7" height="16"/>
				</defs>
				<clipPath id="SVGID_6_">
					<use xlink:href="#SVGID_5_"  style="overflow:visible;"/>
				</clipPath>
				<g class="st3">
					<defs>
						<path id="SVGID_7_" d="M980.3,480.4c0,4.4-137.6,8-307.4,8c-169.7,0-307.4-3.6-307.4-8c0-4.4,137.6-8,307.4-8
							C842.7,472.4,980.3,476,980.3,480.4"/>
					</defs>
					<clipPath id="SVGID_8_">
						<use xlink:href="#SVGID_7_"  style="overflow:visible;"/>
					</clipPath>

						<linearGradient id="SVGID_9_" gradientUnits="userSpaceOnUse" x1="0" y1="488.365" x2="1" y2="488.365" gradientTransform="matrix(-0.8524 -29.8328 -29.8328 0.8524 15242.6299 77.1666)">
						<stop  offset="0" style="stop-color:#510394"/>
						<stop  offset="0.12" style="stop-color:#4A0388"/>
						<stop  offset="0.3373" style="stop-color:#390368"/>
						<stop  offset="0.6248" style="stop-color:#1C0435"/>
						<stop  offset="0.8488" style="stop-color:#030408"/>
						<stop  offset="1" style="stop-color:#030408"/>
					</linearGradient>
					<polygon class="st4" points="366.1,505.9 365.1,472.4 979.8,454.8 980.8,488.4 					"/>
				</g>
			</g>
		</g>
		<g class="st2">
			<g>
				<defs>
					<rect id="SVGID_10_" x="169.8" y="474.5" width="164.2" height="11.8"/>
				</defs>
				<clipPath id="SVGID_11_">
					<use xlink:href="#SVGID_10_"  style="overflow:visible;"/>
				</clipPath>
				<g class="st5">
					<defs>
						<path id="SVGID_12_" d="M334,480.4c0,3.3-36.8,5.9-82.1,5.9c-45.3,0-82.1-2.6-82.1-5.9c0-3.3,36.8-5.9,82.1-5.9
							C297.2,474.5,334,477.1,334,480.4"/>
					</defs>
					<clipPath id="SVGID_13_">
						<use xlink:href="#SVGID_12_"  style="overflow:visible;"/>
					</clipPath>

						<linearGradient id="SVGID_14_" gradientUnits="userSpaceOnUse" x1="0" y1="488.365" x2="1" y2="488.365" gradientTransform="matrix(-0.4556 -15.9445 -15.9445 0.4556 8038.8135 264.8788)">
						<stop  offset="0" style="stop-color:#510394"/>
						<stop  offset="0.12" style="stop-color:#4A0388"/>
						<stop  offset="0.3373" style="stop-color:#390368"/>
						<stop  offset="0.6248" style="stop-color:#1C0435"/>
						<stop  offset="0.8488" style="stop-color:#030408"/>
						<stop  offset="1" style="stop-color:#030408"/>
					</linearGradient>
					<polygon class="st6" points="169.9,491 169.5,474.5 333.9,469.8 334.3,486.3 					"/>
				</g>
			</g>
		</g>
		<path class="st7" d="M634.7,476.1H484.9c-1.4,1.8-0.2,3.9,1.3,3.9h147.3C634.9,479.9,636.2,477.4,634.7,476.1"/>
		<path class="st8" d="M800.3,409.8h-481c-6.1,0-11.1-5-11.1-11.1V130.9c0-6.1,5-11.1,11.1-11.1h481c6.1,0,11.1,5,11.1,11.1v267.8
			C811.4,404.8,806.4,409.8,800.3,409.8"/>
		<path class="st9" d="M797.3,401.9h-475c-4.9,0-8.9-4-8.9-8.9v-259c0-4.9,4-8.9,8.9-8.9h475c4.9,0,8.9,4,8.9,8.9v259
			C806.3,397.9,802.3,401.9,797.3,401.9"/>
	</g>
	<g class="st0">
		<defs>
			<path id="SVGID_15_" d="M509.8,409.8c0,0-2.7,48.4-7,52.3c-3,2.7-12.3,9.7-17.6,13.7c-1.2,0.9-0.6,2.8,0.9,2.8h147.3
				c1.5,0,2.1-1.9,0.9-2.8c-5.3-3.9-14.6-11-17.6-13.7c-4.3-3.8-7-52.3-7-52.3H509.8z"/>
		</defs>
		<clipPath id="SVGID_16_">
			<use xlink:href="#SVGID_15_"  style="overflow:visible;"/>
		</clipPath>

			<linearGradient id="SVGID_17_" gradientUnits="userSpaceOnUse" x1="0" y1="488.3524" x2="1" y2="488.3524" gradientTransform="matrix(-3.3244 -93.1468 -93.1468 3.3244 46049.5078 -1144.9751)">
			<stop  offset="0" style="stop-color:#510394"/>
			<stop  offset="0.1414" style="stop-color:#4A0388"/>
			<stop  offset="0.3974" style="stop-color:#390368"/>
			<stop  offset="0.7361" style="stop-color:#1C0435"/>
			<stop  offset="1" style="stop-color:#030408"/>
		</linearGradient>
		<polygon class="st10" points="484.2,483.9 481.6,409.9 635.4,404.4 638,478.4 		"/>
	</g>
	<g class="st0">
		<defs>
			<rect id="SVGID_18_" width="1009.8" height="488.4"/>
		</defs>
		<clipPath id="SVGID_19_">
			<use xlink:href="#SVGID_18_"  style="overflow:visible;"/>
		</clipPath>
		<path class="st11" d="M790.7,187.2h-22.3v-24.1c0-4.8-3.9-8.7-8.7-8.7H394.6c-4.8,0-8.7,3.9-8.7,8.7v199.1c0,4.8,3.9,8.7,8.7,8.7
			h365.1c4.8,0,8.7-3.9,8.7-8.7V190.9h22.3c1,0,1.9-0.8,1.9-1.9S791.7,187.2,790.7,187.2 M759.7,367.2H394.6c-2.7,0-5-2.2-5-5V163.1
			c0-2.7,2.2-5,5-5h365.1c2.7,0,5,2.2,5,5v24.1H515.3c-1,0-1.9,0.8-1.9,1.9s0.8,1.9,1.9,1.9h249.4v171.3
			C764.6,364.9,762.4,367.2,759.7,367.2"/>
		<path class="st11" d="M704.5,179.3c3.3,0,6.1-2.7,6.1-6.1c0-3.3-2.7-6.1-6.1-6.1c-3.3,0-6.1,2.7-6.1,6.1
			C698.4,176.5,701.1,179.3,704.5,179.3"/>
		<path class="st11" d="M724.9,179.3c3.3,0,6.1-2.7,6.1-6.1c0-3.3-2.7-6.1-6.1-6.1c-3.3,0-6.1,2.7-6.1,6.1
			C718.8,176.5,721.6,179.3,724.9,179.3"/>
		<path class="st11" d="M745.3,179.3c3.3,0,6.1-2.7,6.1-6.1c0-3.3-2.7-6.1-6.1-6.1c-3.3,0-6.1,2.7-6.1,6.1
			C739.3,176.5,742,179.3,745.3,179.3"/>
		<path class="st11" d="M548.3,211.3h-132c-1,0-1.9,0.8-1.9,1.9v132c0,1,0.8,1.9,1.9,1.9h132c1,0,1.9-0.8,1.9-1.9v-132
			C550.2,212.2,549.4,211.3,548.3,211.3 M418.2,215.1h128.2v128.2H418.2V215.1z"/>
		<path class="st11" d="M737.1,265c-1,0-1.9,0.8-1.9,1.9v2.7h-2.7c-1,0-1.9,0.8-1.9,1.9c0,1,0.8,1.9,1.9,1.9h4.6
			c1,0,1.9-0.8,1.9-1.9v-4.6C739,265.9,738.1,265,737.1,265"/>
		<path class="st11" d="M714.6,273.4h9c1,0,1.9-0.8,1.9-1.9c0-1-0.8-1.9-1.9-1.9h-9c-1,0-1.9,0.8-1.9,1.9
			C712.7,272.5,713.5,273.4,714.6,273.4"/>
		<path class="st11" d="M687.7,269.6h-9c-1,0-1.9,0.8-1.9,1.9c0,1,0.8,1.9,1.9,1.9h9c1,0,1.9-0.8,1.9-1.9
			C689.5,270.4,688.7,269.6,687.7,269.6"/>
		<path class="st11" d="M696.6,273.4h9c1,0,1.9-0.8,1.9-1.9c0-1-0.8-1.9-1.9-1.9h-9c-1,0-1.9,0.8-1.9,1.9
			C694.7,272.5,695.6,273.4,696.6,273.4"/>
		<path class="st11" d="M624.9,273.4h9c1,0,1.9-0.8,1.9-1.9c0-1-0.8-1.9-1.9-1.9h-9c-1,0-1.9,0.8-1.9,1.9
			C623,272.5,623.8,273.4,624.9,273.4"/>
		<path class="st11" d="M651.8,269.6h-9c-1,0-1.9,0.8-1.9,1.9c0,1,0.8,1.9,1.9,1.9h9c1,0,1.9-0.8,1.9-1.9
			C653.7,270.4,652.8,269.6,651.8,269.6"/>
		<path class="st11" d="M671.6,271.5c0-1-0.8-1.9-1.9-1.9h-9c-1,0-1.9,0.8-1.9,1.9c0,1,0.8,1.9,1.9,1.9h9
			C670.8,273.4,671.6,272.5,671.6,271.5"/>
		<path class="st11" d="M606.9,273.4h9c1,0,1.9-0.8,1.9-1.9c0-1-0.8-1.9-1.9-1.9h-9c-1,0-1.9,0.8-1.9,1.9
			C605.1,272.5,605.9,273.4,606.9,273.4"/>
		<path class="st11" d="M598,269.6h-9c-1,0-1.9,0.8-1.9,1.9c0,1,0.8,1.9,1.9,1.9h9c1,0,1.9-0.8,1.9-1.9
			C599.9,270.4,599,269.6,598,269.6"/>
		<path class="st11" d="M575.4,273.4h4.6c1,0,1.9-0.8,1.9-1.9c0-1-0.8-1.9-1.9-1.9h-2.7v-2.7c0-1-0.8-1.9-1.9-1.9
			c-1,0-1.9,0.8-1.9,1.9v4.6C573.6,272.5,574.4,273.4,575.4,273.4"/>
		<path class="st11" d="M575.4,239.3c1,0,1.9-0.8,1.9-1.9v-9.8c0-1-0.8-1.9-1.9-1.9c-1,0-1.9,0.8-1.9,1.9v9.8
			C573.6,238.5,574.4,239.3,575.4,239.3"/>
		<path class="st11" d="M575.4,258.9c1,0,1.9-0.8,1.9-1.9v-9.8c0-1-0.8-1.9-1.9-1.9c-1,0-1.9,0.8-1.9,1.9v9.8
			C573.6,258.1,574.4,258.9,575.4,258.9"/>
		<path class="st11" d="M575.4,219.7c1,0,1.9-0.8,1.9-1.9v-2.7h2.7c1,0,1.9-0.8,1.9-1.9s-0.8-1.9-1.9-1.9h-4.6c-1,0-1.9,0.8-1.9,1.9
			v4.6C573.6,218.8,574.4,219.7,575.4,219.7"/>
		<path class="st11" d="M606.9,215.1h9c1,0,1.9-0.8,1.9-1.9c0-1-0.8-1.9-1.9-1.9h-9c-1,0-1.9,0.8-1.9,1.9
			C605.1,214.2,605.9,215.1,606.9,215.1"/>
		<path class="st11" d="M589,215.1h9c1,0,1.9-0.8,1.9-1.9c0-1-0.8-1.9-1.9-1.9h-9c-1,0-1.9,0.8-1.9,1.9
			C587.1,214.2,588,215.1,589,215.1"/>
		<path class="st11" d="M714.6,215.1h9c1,0,1.9-0.8,1.9-1.9c0-1-0.8-1.9-1.9-1.9h-9c-1,0-1.9,0.8-1.9,1.9
			C712.7,214.2,713.5,215.1,714.6,215.1"/>
		<path class="st11" d="M678.7,215.1h9c1,0,1.9-0.8,1.9-1.9c0-1-0.8-1.9-1.9-1.9h-9c-1,0-1.9,0.8-1.9,1.9
			C676.8,214.2,677.7,215.1,678.7,215.1"/>
		<path class="st11" d="M660.8,215.1h9c1,0,1.9-0.8,1.9-1.9c0-1-0.8-1.9-1.9-1.9h-9c-1,0-1.9,0.8-1.9,1.9
			C658.9,214.2,659.7,215.1,660.8,215.1"/>
		<path class="st11" d="M696.6,215.1h9c1,0,1.9-0.8,1.9-1.9c0-1-0.8-1.9-1.9-1.9h-9c-1,0-1.9,0.8-1.9,1.9
			C694.7,214.2,695.6,215.1,696.6,215.1"/>
		<path class="st11" d="M624.9,215.1h9c1,0,1.9-0.8,1.9-1.9c0-1-0.8-1.9-1.9-1.9h-9c-1,0-1.9,0.8-1.9,1.9
			C623,214.2,623.8,215.1,624.9,215.1"/>
		<path class="st11" d="M651.8,211.3h-9c-1,0-1.9,0.8-1.9,1.9s0.8,1.9,1.9,1.9h9c1,0,1.9-0.8,1.9-1.9S652.8,211.3,651.8,211.3"/>
		<path class="st11" d="M737.1,211.3h-4.6c-1,0-1.9,0.8-1.9,1.9s0.8,1.9,1.9,1.9h2.7v2.7c0,1,0.8,1.9,1.9,1.9c1,0,1.9-0.8,1.9-1.9
			v-4.6C739,212.2,738.1,211.3,737.1,211.3"/>
		<path class="st11" d="M737.1,245.4c-1,0-1.9,0.8-1.9,1.9v9.8c0,1,0.8,1.9,1.9,1.9c1,0,1.9-0.8,1.9-1.9v-9.8
			C739,246.2,738.1,245.4,737.1,245.4"/>
		<path class="st11" d="M737.1,225.7c-1,0-1.9,0.8-1.9,1.9v9.8c0,1,0.8,1.9,1.9,1.9c1,0,1.9-0.8,1.9-1.9v-9.8
			C739,226.6,738.1,225.7,737.1,225.7"/>
		<path class="st11" d="M646.7,285h-71.3c-1,0-1.9,0.8-1.9,1.9v58.3c0,1,0.8,1.9,1.9,1.9h71.3c1,0,1.9-0.8,1.9-1.9v-58.3
			C648.6,285.9,647.8,285,646.7,285 M577.3,288.8h67.5v54.5h-67.5V288.8z"/>
		<path class="st11" d="M735.6,285h-71.3c-1,0-1.9,0.8-1.9,1.9v58.3c0,1,0.8,1.9,1.9,1.9h71.3c1,0,1.9-0.8,1.9-1.9v-58.3
			C737.4,285.9,736.6,285,735.6,285 M666.2,288.8h67.5v54.5h-67.5V288.8z"/>
		<path class="st12" d="M875.5,360H760.9c-4.4,0-8-3.6-8-8V200.8c0-4.4,3.6-8,8-8h114.5c4.4,0,8,3.6,8,8V352
			C883.5,356.4,879.9,360,875.5,360"/>
		<rect x="776.4" y="233" class="st13" width="73.9" height="3.3"/>
		<rect x="776.4" y="243.7" class="st13" width="73.9" height="3.3"/>
		<rect x="776.4" y="254.4" class="st13" width="49.3" height="3.3"/>
		<rect x="776.4" y="265" class="st13" width="73.9" height="3.3"/>
		<rect x="776.4" y="275.7" class="st13" width="49.3" height="3.3"/>
		<rect x="776.4" y="286.4" class="st13" width="73.9" height="3.3"/>
		<rect x="776.4" y="297.1" class="st13" width="49.3" height="3.3"/>
		<rect x="776.4" y="307.7" class="st13" width="73.9" height="3.3"/>
		<rect x="776.4" y="318.4" class="st13" width="49.3" height="3.3"/>
		<path class="st14" d="M812.1,224h-30.4c-2.9,0-5.3-2.4-5.3-5.3c0-2.9,2.4-5.3,5.3-5.3h30.4c2.9,0,5.3,2.4,5.3,5.3
			C817.5,221.6,815.1,224,812.1,224"/>
		<path class="st12" d="M351,365.1H195.6c-4.4,0-8-3.6-8-8V238.9c0-4.4,3.6-8,8-8H351c4.4,0,8,3.6,8,8v118.2
			C359,361.5,355.4,365.1,351,365.1"/>
		<rect x="199.5" y="240.2" class="st14" width="51.5" height="7.6"/>
		<path class="st13" d="M343.7,333H205.5c-3.3,0-6-2.7-6-6v-64c0-3.3,2.7-6,6-6h138.3c3.3,0,6,2.7,6,6v64
			C349.7,330.3,347,333,343.7,333"/>
		<rect x="207.9" y="282.4" class="st15" width="76" height="3.4"/>
		<rect x="207.9" y="293.3" class="st15" width="76" height="3.4"/>
		<rect x="207.9" y="304.3" class="st15" width="50.6" height="3.4"/>
		<path class="st14" d="M329.7,324.6h-9c-5,0-9-4-9-9v-9c0-5,4-9,9-9h9c5,0,9,4,9,9v9C338.7,320.5,334.7,324.6,329.7,324.6"/>
		<path class="st14" d="M244.6,273.1h-31.2c-3,0-5.5-2.5-5.5-5.5c0-3,2.5-5.5,5.5-5.5h31.2c3,0,5.5,2.5,5.5,5.5
			C250.1,270.6,247.7,273.1,244.6,273.1"/>
	</g>
	<g class="st0">
		<defs>
			<path id="SVGID_20_" d="M214.6,317.7c-17.1,1.6-2,24.2,2,26.8c0,5.5-0.4,16.5-2.9,26c-0.5-6-6.6-23.2-14.6-17.2
				c-11.6,8.8,10.6,19.4,14,19.2c-1.1,3.5-2.4,6.7-4.2,9.2c-1.3,1.8-2.7,4-4.2,6.3c0,0-0.1,0.1-0.1,0.1c-0.7-6.4-6.7-22.7-14.5-16.8
				c-10.8,8.2,7.8,18,13.1,19.1c-3.3,5.3-6.6,11.4-9.2,17.2c-0.4-5.7-11.6-17.5-16.1-10.8c-2.5,3.7,10.7,15.9,15.1,13.2
				c-2.5,6.1-4,11.7-3.5,15.9c0.2,1.5,0.5,3.3,0.8,5.3c-3.1-3.4-14.2-14.9-17.6-6c-2.8,7.3,6.4,11.6,10.3,11.6c3,0,6.2-2.9,7.5-4.1
				c0.2,1.1,0.4,2.1,0.6,3.2c1.6,9,3.4,19.9,2.9,26.5c-2.6-5.1-14.4-26.4-21.2-12.7c-3.5,7,6.4,12.9,10.3,14.2
				c3.2,1.1,8.8,0.1,10.8-0.3c-0.1,0.7-0.2,1.4-0.4,2c-2.5,7.6-7.6,15.2-7.7,15.3c-0.2,0.3-0.1,0.7,0.2,0.9c0.1,0.1,0.2,0.1,0.4,0.1
				c0.2,0,0.4-0.1,0.5-0.3c0-0.1,3.8-5.8,6.5-12.3c3-0.4,14.7-2,18.1-4.2c3.9-2.6,10.8-11.1,5.2-14.2c-8.7-4.8-17.9,8-21.9,14.7
				c1.5-5,0.2-15-1.4-24.4c3.1,0.9,13.3-0.9,16.8-3.2c3.9-2.6,10.5-9.3,6.4-12.9c-10.2-9.1-21.1,10.2-23.5,14.8
				c-0.2-1.5-0.5-2.9-0.7-4.3c-0.6-3.7-1.3-7.3-1.6-10c-0.5-3.8,1-9.4,3.5-15.6c2,0.6,8.9,2.5,16.5,1.5c9-1.3,13.6-8.3,10.3-11.6
				c-5.6-5.6-22.1,6-26.4,9.2c2.6-6.1,6.2-12.8,10.2-19.2c5.3,1.2,26.2,0.8,23.4-7.5c-2.8-8.3-13.6-2.7-19.9,2.2
				c0.5-0.8,1-1.5,1.6-2.3c2.4-3.4,4.1-7.8,5.2-12.5c4.6,1.2,22.1,0.5,18.7-8.1c-3.7-9.6-13.6-1.2-17.9,4.1
				c1.6-8.5,1.8-17.1,1.8-21.7c3.1-3.7,9.5-26.6-2.4-26.6C215.2,317.7,214.9,317.7,214.6,317.7"/>
		</defs>
		<clipPath id="SVGID_21_">
			<use xlink:href="#SVGID_20_"  style="overflow:visible;"/>
		</clipPath>

			<linearGradient id="SVGID_22_" gradientUnits="userSpaceOnUse" x1="0" y1="488.3906" x2="1" y2="488.3906" gradientTransform="matrix(-54.4168 40.8126 40.8126 54.4168 -19691.3516 -26205.166)">
			<stop  offset="0" style="stop-color:#4E9CFF"/>
			<stop  offset="1" style="stop-color:#176AD4"/>
		</linearGradient>
		<polygon class="st16" points="316.2,422.9 193.7,514.8 90.2,376.9 212.7,285 		"/>
	</g>
	<g class="st0">
		<defs>
			<path id="SVGID_23_" d="M154.6,372.5c-10.3,9.1,5.1,19.8,8.8,22.1c1.2,5.1,1.5,12.6,1.1,20.3c-2.3-5.8-11.6-26.7-22.8-16.6
				c-4.3,3.9,5.2,12.9,11.6,15.5c5.1,2,9.5,2.5,11.1,2.6c-0.5,7.5-1.7,15.2-3.3,21.1c-0.3,1.1-0.5,2.2-0.7,3.4
				c-2.4-4.9-13.8-25.9-26.4-16.8c-5.2,3.8,5.2,12.9,10.3,15.5c4.4,2.2,13.4,2.3,15.9,2.3c-1.1,7.8-0.1,17.4,2.2,25.4
				c-3.8-5.7-14.9-20.4-23.3-11c-5,5.6,7.9,10.4,11.6,11.6c3.2,1.1,10.1,1.4,12.3,1.5c1.8,5.5,4.3,10.1,7.2,12.6
				c0.1,0.1,0.3,0.1,0.4,0.1c0.2,0,0.4-0.1,0.5-0.2c0.2-0.3,0.2-0.7-0.1-0.9c-2.8-2.3-5.2-6.7-6.9-12c1.7-0.7,6.6-2.8,9.7-4.9
				c3.9-2.6,9.9-11.8,3.9-14.2c-10.8-4.3-13.5,12.2-14,17.7c-2.4-7.9-3.4-17.6-2.3-25.4c1.6,0,8-0.3,12.5-2.6
				c5.2-2.6,8.3-12.9,3.9-14.2c-7.5-2.1-14.1,10.9-16.1,15.3c0.2-1,0.4-2,0.6-2.9c1.6-6,2.8-13.8,3.4-21.5c2,0,7.7-0.2,10.9-1.3
				c3.9-1.3,10.4-11.4,5.2-12.9c-7.2-2.1-13.7,8.3-15.9,12.5c0.4-8,0.1-15.6-1.2-20.9c0.6-2.3,1.7-7.2,1.7-11
				c0-4.2-3.9-11.7-8.4-11.7C156.8,371.2,155.7,371.6,154.6,372.5"/>
		</defs>
		<clipPath id="SVGID_24_">
			<use xlink:href="#SVGID_23_"  style="overflow:visible;"/>
		</clipPath>

			<linearGradient id="SVGID_25_" gradientUnits="userSpaceOnUse" x1="0" y1="488.3644" x2="1" y2="488.3644" gradientTransform="matrix(-8.6132 80.9633 80.9633 8.6132 -39379.3438 -3802.064)">
			<stop  offset="0" style="stop-color:#F2BE3C"/>
			<stop  offset="1" style="stop-color:#FFAC00"/>
		</linearGradient>
		<polygon class="st17" points="198.6,372.4 186.3,488.2 117.1,480.9 129.4,365.1 		"/>
	</g>
	<g class="st0">
		<defs>
			<rect id="SVGID_26_" width="1009.8" height="488.4"/>
		</defs>
		<clipPath id="SVGID_27_">
			<use xlink:href="#SVGID_26_"  style="overflow:visible;"/>
		</clipPath>
		<path class="st18" d="M205.5,482.1h-58.7c-0.4,0-0.6-0.3-0.6-0.6c0-0.4,0.3-0.6,0.6-0.6h58.7c0.4,0,0.6,0.3,0.6,0.6
			C206.2,481.8,205.9,482.1,205.5,482.1"/>
		<path class="st18" d="M226.2,482.1h-13.5c-0.4,0-0.6-0.3-0.6-0.6c0-0.4,0.3-0.6,0.6-0.6h13.5c0.4,0,0.6,0.3,0.6,0.6
			C226.8,481.8,226.5,482.1,226.2,482.1"/>
	</g>
	<g class="st0">
		<defs>
			<path id="SVGID_28_" d="M965.2,361.2c-12.6,1.1-1.4,17.8,1.5,19.7c0,4.1-0.3,12.1-2.1,19.1c-0.4-4.4-4.8-17.1-10.7-12.6
				c-8.5,6.5,7.8,14.3,10.3,14.1c-0.8,2.6-1.8,4.9-3.1,6.8c-0.9,1.4-2,2.9-3.1,4.6c0,0,0,0-0.1,0.1c-0.5-4.7-4.9-16.7-10.7-12.3
				c-8,6,5.7,13.2,9.6,14.1c-2.4,3.9-4.9,8.4-6.8,12.7c-0.3-4.2-8.6-12.9-11.8-7.9c-1.8,2.8,7.9,11.7,11.1,9.7
				c-1.8,4.5-2.9,8.6-2.5,11.7c0.1,1.1,0.3,2.4,0.6,3.9c-2.3-2.5-10.5-10.9-12.9-4.4c-2,5.4,4.7,8.5,7.6,8.5c2.2,0,4.6-2.1,5.5-3
				c0.1,0.8,0.3,1.6,0.4,2.4c1.1,6.6,2.5,14.6,2.1,19.5c-1.9-3.8-10.6-19.4-15.6-9.3c-2.6,5.2,4.7,9.5,7.6,10.4
				c2.3,0.8,6.5,0.1,7.9-0.2c-0.1,0.5-0.2,1-0.3,1.5c-1.9,5.6-5.6,11.2-5.6,11.3c-0.1,0.2-0.1,0.5,0.1,0.7c0.1,0.1,0.2,0.1,0.3,0.1
				c0.2,0,0.3-0.1,0.4-0.2c0,0,2.8-4.3,4.8-9c2.2-0.3,10.8-1.5,13.3-3.1c2.8-1.9,7.9-8.1,3.8-10.4c-6.4-3.6-13.1,5.9-16.1,10.8
				c1.1-3.7,0.1-11-1-17.9c2.3,0.7,9.8-0.6,12.4-2.4c2.8-1.9,7.7-6.8,4.7-9.5c-7.5-6.7-15.5,7.5-17.3,10.9c-0.2-1.1-0.4-2.1-0.5-3.2
				c-0.5-2.8-0.9-5.4-1.2-7.3c-0.4-2.8,0.7-6.9,2.6-11.4c1.5,0.5,6.6,1.9,12.1,1.1c6.6-0.9,10-6.1,7.6-8.5
				c-4.1-4.1-16.3,4.4-19.4,6.7c1.9-4.5,4.6-9.4,7.5-14.1c3.9,0.9,19.3,0.6,17.2-5.6c-2.1-6.1-10-2-14.6,1.6
				c0.4-0.6,0.8-1.1,1.1-1.7c1.8-2.5,3-5.8,3.8-9.2c3.4,0.9,16.2,0.4,13.8-6c-2.7-7-10-0.9-13.1,3c1.2-6.2,1.3-12.6,1.3-16
				c2.3-2.7,7-19.6-1.8-19.6C965.7,361.2,965.4,361.2,965.2,361.2"/>
		</defs>
		<clipPath id="SVGID_29_">
			<use xlink:href="#SVGID_28_"  style="overflow:visible;"/>
		</clipPath>

			<linearGradient id="SVGID_30_" gradientUnits="userSpaceOnUse" x1="0" y1="488.3905" x2="1" y2="488.3905" gradientTransform="matrix(-40.0133 30.01 30.01 40.0133 -13671.8496 -19141.3594)">
			<stop  offset="0" style="stop-color:#4E9CFF"/>
			<stop  offset="1" style="stop-color:#176AD4"/>
		</linearGradient>
		<polygon class="st19" points="1039.9,438.6 949.8,506.1 873.8,404.7 963.9,337.2 		"/>
	</g>
	<g class="st0">
		<defs>
			<path id="SVGID_31_" d="M921.1,401.5c-7.5,6.7,3.8,14.5,6.5,16.3c0.9,3.8,1.1,9.2,0.8,14.9c-1.7-4.3-8.5-19.6-16.7-12.2
				c-3.2,2.8,3.8,9.5,8.5,11.4c3.8,1.5,7,1.8,8.1,1.9c-0.4,5.5-1.2,11.1-2.4,15.5c-0.2,0.8-0.4,1.6-0.5,2.5
				c-1.8-3.6-10.2-19-19.4-12.3c-3.8,2.8,3.8,9.5,7.6,11.4c3.3,1.6,9.9,1.7,11.7,1.7c-0.8,5.7-0.1,12.8,1.6,18.7
				c-2.8-4.2-10.9-15-17.1-8.1c-3.7,4.1,5.8,7.6,8.5,8.5c2.4,0.8,7.5,1,9.1,1.1c1.3,4.1,3.2,7.4,5.3,9.2c0.1,0.1,0.2,0.1,0.3,0.1
				c0.1,0,0.3-0.1,0.4-0.2c0.2-0.2,0.1-0.5-0.1-0.7c-2-1.7-3.8-4.9-5.1-8.8c1.2-0.5,4.8-2.1,7.1-3.6c2.8-1.9,7.2-8.7,2.8-10.4
				c-8-3.2-9.9,9-10.3,13c-1.8-5.8-2.5-12.9-1.7-18.7c1.2,0,5.9-0.3,9.2-1.9c3.8-1.9,6.1-9.5,2.8-10.4c-5.5-1.6-10.4,8-11.9,11.3
				c0.1-0.7,0.3-1.5,0.5-2.1c1.2-4.4,2.1-10.2,2.5-15.8c1.5,0,5.7-0.2,8-0.9c2.8-0.9,7.7-8.4,3.8-9.5c-5.3-1.5-10,6.1-11.7,9.2
				c0.3-5.9,0.1-11.5-0.9-15.3c0.4-1.7,1.2-5.3,1.2-8.1c0-3.1-2.9-8.6-6.2-8.6C922.7,400.5,921.9,400.8,921.1,401.5"/>
		</defs>
		<clipPath id="SVGID_32_">
			<use xlink:href="#SVGID_31_"  style="overflow:visible;"/>
		</clipPath>

			<linearGradient id="SVGID_33_" gradientUnits="userSpaceOnUse" x1="0" y1="488.3644" x2="1" y2="488.3644" gradientTransform="matrix(-6.3334 59.5333 59.5333 6.3334 -28148.6797 -2668.095)">
			<stop  offset="0" style="stop-color:#F2BE3C"/>
			<stop  offset="1" style="stop-color:#FFAC00"/>
		</linearGradient>
		<polygon class="st20" points="953.5,401.5 944.4,486.6 893.5,481.2 902.6,396 		"/>
	</g>
	<g class="st0">
		<defs>
			<rect id="SVGID_34_" width="1009.8" height="488.4"/>
		</defs>
		<clipPath id="SVGID_35_">
			<use xlink:href="#SVGID_34_"  style="overflow:visible;"/>
		</clipPath>
		<path class="st21" d="M958.6,482.1h-43.1c-0.3,0-0.5-0.2-0.5-0.5s0.2-0.5,0.5-0.5h43.1c0.3,0,0.5,0.2,0.5,0.5
			S958.8,482.1,958.6,482.1"/>
		<path class="st21" d="M973.7,482.1h-10c-0.3,0-0.5-0.2-0.5-0.5s0.2-0.5,0.5-0.5h10c0.3,0,0.5,0.2,0.5,0.5S974,482.1,973.7,482.1"
			/>
	</g>
	<g class="st0">
		<defs>
			<path id="SVGID_36_" d="M833.7,474c-1.4,0.2-3.7,0.1-5.8,0c-2.1-0.1-4.1-0.2-4.5,0c-0.8,0.4-2.5,2.1-2.4,3.8
				c0.1,1.7,8.3,3.4,9.8,3.4c0.2,0,0.6,0,1,0c2.6,0,8.6,0,10.9-1.3c2.6-1.5,6.9-5.6,7.1-7.7c0.2-2.1-8.8-2.8-8.8-2.8
				C838.6,471.2,836.4,473.6,833.7,474"/>
		</defs>
		<clipPath id="SVGID_37_">
			<use xlink:href="#SVGID_36_"  style="overflow:visible;"/>
		</clipPath>

			<linearGradient id="SVGID_38_" gradientUnits="userSpaceOnUse" x1="0" y1="488.3543" x2="1" y2="488.3543" gradientTransform="matrix(14.2903 -8.4299 8.4299 14.2903 -3292.2588 -6496.8823)">
			<stop  offset="0" style="stop-color:#4E9CFF"/>
			<stop  offset="0.5331" style="stop-color:#176AD4"/>
			<stop  offset="1" style="stop-color:#176AD4"/>
		</linearGradient>
		<polygon class="st22" points="828.4,494 855.2,478.2 842.5,456.7 815.7,472.5 		"/>
	</g>
	<g class="st0">
		<defs>
			<path id="SVGID_39_" d="M837.3,477.7c-0.9,0.5-5.2,1.6-6.4,1.9c-1.2,0.3-2,2.4-2,3.3c0,0.9,1.7,2.3,5.6,2.6
				c3.9,0.2,10.3,0.2,13.5-0.6c3.2-0.8,7.9-4.6,8.6-4.8c0.2-0.1,0,1.1,0,1.6c0,0.4,1,0.7,1.8,0.6c0.9-0.1,5.6-0.9,5.8-1.8
				c0.2-0.9,0.2-4.3-0.6-5.5c-0.8-1.2-17.3-3.3-17.3-3.3C843.5,473.2,838.2,477.1,837.3,477.7"/>
		</defs>
		<clipPath id="SVGID_40_">
			<use xlink:href="#SVGID_39_"  style="overflow:visible;"/>
		</clipPath>

			<linearGradient id="SVGID_41_" gradientUnits="userSpaceOnUse" x1="0" y1="488.2839" x2="1" y2="488.2839" gradientTransform="matrix(16.8409 -11.3794 11.3794 16.8409 -4723.3599 -7735.3633)">
			<stop  offset="0" style="stop-color:#4E9CFF"/>
			<stop  offset="1" style="stop-color:#176AD4"/>
		</linearGradient>
		<polygon class="st23" points="840,502.1 870.8,481.2 853.2,455.2 822.3,476 		"/>
	</g>
	<g class="st0">
		<defs>
			<path id="SVGID_42_" d="M835.1,351.4c-0.4,3.7-0.1,10.3,1,13.6c1.1,3.4,1.9,28,5,37.8c3.1,9.7,5.4,21.9,3.7,28.5
				c-1.7,6.6,0.7,28.7-0.6,32.1s-4.4,5.2-4.1,6.1c0.4,1,4.9,3.2,8.5,3c3.6-0.1,7.5-1,8.5-3.2c1-2.1,8.7-54.6,8.1-71.3
				c-0.7-16.7-2-44.2-11.1-49.7c-2.2-1.3-4.5-1.8-6.7-1.8C840.8,346.6,835.1,351.4,835.1,351.4"/>
		</defs>
		<clipPath id="SVGID_43_">
			<use xlink:href="#SVGID_42_"  style="overflow:visible;"/>
		</clipPath>

			<linearGradient id="SVGID_44_" gradientUnits="userSpaceOnUse" x1="0" y1="488.381" x2="1" y2="488.381" gradientTransform="matrix(-29.4436 -7.4494 7.4494 -29.4436 -2773.5146 14793.043)">
			<stop  offset="0" style="stop-color:#1D0633"/>
			<stop  offset="1" style="stop-color:#192B59"/>
		</linearGradient>
		<polygon class="st24" points="895.9,354.2 836.6,339.2 804.7,465.2 864,480.2 		"/>
	</g>
	<g class="st0">
		<defs>
			<rect id="SVGID_45_" width="1009.8" height="488.4"/>
		</defs>
		<clipPath id="SVGID_46_">
			<use xlink:href="#SVGID_45_"  style="overflow:visible;"/>
		</clipPath>
		<path class="st25" d="M875.4,345.9c1.2,3.2,1.2,16.6,1,20.9c-0.2,4.3-2.5,45.2-3,48.2c-0.5,3-2.7,24.4-4.2,31
			c-1.5,6.6-3.3,14.8-3.5,17.5c-0.2,2.7-0.5,11.2-1.8,11.9c-1.3,0.7-14.6-1.9-16.6-2.2c-2-0.3-2.9-2.4-2.3-4
			c0.6-1.6,2.7-12.7,3.8-17.1c1.1-4.4,2.4-14.8,2.5-21.1c0.1-6.3-2.3-55-3.5-57.7c-1.2-2.7-10.8-12.1-12.2-20.5
			C834.4,344.4,875.4,345.9,875.4,345.9"/>
		<path class="st26" d="M809.8,342.2c-0.2,1.3-3.7,4.9-5.2,4.9c-1.5-0.1-5.4-2.5-8.1-5c-2.6-2.4-7.1-9.5-8.5-11
			c-1.3-1.4-2.8-3.3-3.5-3.4c-0.7-0.1-4.1-1-6-2.9c-1.9-2-2.3-1.8-2.4-2.1c-0.1-0.3,0.3-1.2-0.1-1.3c-0.4-0.1-1.1-0.6-1.1-1.2
			c0-0.6,0.6-1.6,0.6-2c0-0.5-0.8-1.3-1.1-1.6c-0.4-0.2-0.3-1.5,0.1-1.9c0.5-0.5,0.9-1,0.9-1.3c0-0.3,0.7-1.6,1.6-1.3
			c0.9,0.3,1.8,1.2,3.1,1.4c1.4,0.2,2.5-0.1,4.2,1.3c1.7,1.5,3.2,2.8,3.7,4.6c0.5,1.8,1.8,4.7,3.4,6.3c1.6,1.6,6.3,6.1,7.7,5.9
			c1.5-0.2,3.5-0.1,4.5,0.7c1,0.8,3.9,3.8,4.7,5.5C809.3,339.6,810.1,341.1,809.8,342.2"/>
	</g>
	<g class="st0">
		<defs>
			<path id="SVGID_47_" d="M804,317.2c-0.1,2.2-4.8,13.5-4.8,14.3c0,0.8,2.4,0.1,3.5,1.3c1.1,1.2,3.9,3.7,4.7,5.4
				c0.8,1.6,1.4,5.1,2.6,4.7c1.2-0.3,8.2-15.8,8.6-21.6c0.4-5.8-13.1-17.3-13.1-17.3S804.1,315,804,317.2"/>
		</defs>
		<clipPath id="SVGID_48_">
			<use xlink:href="#SVGID_47_"  style="overflow:visible;"/>
		</clipPath>

			<linearGradient id="SVGID_49_" gradientUnits="userSpaceOnUse" x1="0" y1="488.3813" x2="1" y2="488.3813" gradientTransform="matrix(19.1883 -2.2983 2.2983 19.1883 -318.679 -9046.9775)">
			<stop  offset="0" style="stop-color:#4E9CFF"/>
			<stop  offset="0.8518" style="stop-color:#176AD4"/>
			<stop  offset="1" style="stop-color:#176AD4"/>
		</linearGradient>
		<polygon class="st27" points="799.4,345.5 823.5,342.6 818.6,301.7 794.5,304.6 		"/>
	</g>
	<g class="st0">
		<defs>
			<path id="SVGID_50_" d="M825.1,278.3c0,0-4.3,7.1-6.9,10c-2.6,2.9-5.2,5.8-8.7,8.6c-3.5,2.8-4,4.6-4.5,9.4
				c-0.5,4.8,12.7,17.9,15.8,22.3c3.1,4.3,11.5,17.5,12.7,21.1c1.1,3.6,2.3,5.9,11.1,5.9s30.9-8,32.5-9.3
				c1.5-1.2-8.8-14.6-10.1-19.1c-1.3-4.6-4.2-21.9-4.4-24.1c-0.2-2.2,0.7-1.8,2.2-1.8c1.5,0,9.5,1.5,10.7,1.9
				c1.2,0.4,3.2,1.3,5.9,0.8c2.7-0.5,7.7-6,9.3-8.2c1.5-2.1-4.2-4.8-8-6.7c-3.8-1.9-26.6-6-30.8-7.1c-4.3-1.1-18.6,0-19.6,0
				c-1,0-3.5-1.9-4.4-2.8c-0.7-0.7-1.3-1.3-2-1.3C825.6,278.2,825.4,278.2,825.1,278.3"/>
		</defs>
		<clipPath id="SVGID_51_">
			<use xlink:href="#SVGID_50_"  style="overflow:visible;"/>
		</clipPath>

			<linearGradient id="SVGID_52_" gradientUnits="userSpaceOnUse" x1="0" y1="488.4079" x2="1" y2="488.4079" gradientTransform="matrix(67.5271 53.1476 -53.1476 67.5271 26759.5117 -32700.4902)">
			<stop  offset="0" style="stop-color:#4E9CFF"/>
			<stop  offset="0.9844" style="stop-color:#176AD4"/>
			<stop  offset="1" style="stop-color:#176AD4"/>
		</linearGradient>
		<polygon class="st28" points="766.8,326 858.7,398.3 929.9,307.8 838.1,235.5 		"/>
	</g>
	<g class="st0">
		<defs>
			<rect id="SVGID_53_" width="1009.8" height="488.4"/>
		</defs>
		<clipPath id="SVGID_54_">
			<use xlink:href="#SVGID_53_"  style="overflow:visible;"/>
		</clipPath>
		<path class="st29" d="M823.8,278.6c2.5-0.7,1.9-3.7,1-5.3c-0.9-1.6-2.2-4.4-2.6-6.6c-0.4-2.2-1.9-6.7-7.4-8.4s-10,0.1-14.3,3.9
			c-6.5,5.8-6.8,1.1-7.3,1.2c-2.6,0.7-3.3,4.8-2.3,7.1c1.4,3.3,5.3,4.7,8.8,2.8c2.8-1.6,5.3,0.8,7.5,1.1c2.8,0.4,5-0.7,5.6,0.5
			C814,277,818.4,280.2,823.8,278.6"/>
		<path class="st30" d="M804.8,271.1c-2.5,1.7-5.2,1.5-5.1,2.3c0.2,1.7,0.6,3.2,1,3.7c0.8,1,1,2.4,1,3.2c0,0.8-0.6,5,0.2,5.1
			c0.8,0.1,1.4,0.5,1.8,1.1c0.4,0.6,3.3,6.7,5.7,6.2c2.4-0.5,5.6-1.9,6.5-1.7c0.8,0.2,4.7,3.6,5.6,3.6c0.9,0,1.8-1,2.3-2.6
			s3.5-11.3,3.1-12.5c-0.4-1.2-3.2-2.3-3.8-3.5c-0.6-1.2-0.4-6.3-1.5-7.5c-1.1-1.3-3.7-0.3-4.3,1.8c-0.6,2.1,0.2,4.6-0.5,5.1
			c-0.7,0.5-2-0.5-2.4-1.5c-0.4-1-1.7-5.8-3.8-6.3C808.7,267.1,807.6,269.2,804.8,271.1"/>
		<path class="st30" d="M890.9,295.3c1.8,0.6,2.1,2.8,1.6,4c-0.8,2.1-3.6,15.2-6,19.2c-2.4,4-6.5,11.4-6.8,13
			c-0.2,1.5-0.7,5.2-1.7,6.1c-1.1,0.9-3.7,2.6-3.6,2.7c0.1,0.1,1,1.2,0.2,1.8c-0.8,0.6-2.7-0.6-3.4-0.9c-0.7-0.3-1.5-0.8-1.8-2.2
			c-0.3-1.4-1.5-5.5-1.6-6.1c-0.1-0.6,0.8-1.7,2.2-2.2c1.5-0.5,3.5-0.4,3.8-1.4c0.4-1,3.7-11.2,3.9-13c0.3-1.8,0.6-7.6,2-11.9
			c0.4-1.3,3.3-1,6.1-3.4C888.5,298.6,890.1,295,890.9,295.3"/>
	</g>
	<g class="st0">
		<defs>
			<path id="SVGID_55_" d="M778.2,314.3c0.6,0.3,2.2,0.3,2.7,1.2c0.2,0.4-0.2,1.3-0.3,1.4c0,0,0.4,0,0.8,0c0.5,0,1,0,1,0.1
				c0.1,0.1,0.6,2,0.6,2.2c0,0.1,0.2,0.1,0.5,0.1c0.1,0,0.2,0,0.3,0c0.3,0,0.9,0.9,1,1.3c0,0.5-0.3,0.7-0.3,0.9
				c0,0.1,0.1,0.1,0.2,0.1c0.1,0,0.1,0,0.2,0c0.2,0,0.3,0.5,0.5,0c0.2-0.5-0.3-1.4-0.5-1.6c-0.2-0.3-1.5-1.3-1.7-1.5
				c-0.1-0.2-0.6-1.4-0.7-1.6c-0.1-0.3-0.6-2.3-1.5-2.4c-0.6-0.1-1.8-0.2-2.4-0.2C778.3,314.2,778.1,314.2,778.2,314.3"/>
		</defs>
		<clipPath id="SVGID_56_">
			<use xlink:href="#SVGID_55_"  style="overflow:visible;"/>
		</clipPath>

			<linearGradient id="SVGID_57_" gradientUnits="userSpaceOnUse" x1="0" y1="488.389" x2="1" y2="488.389" gradientTransform="matrix(4.8328 -5.4637 5.4637 4.8328 -1889.9011 -2038.3929)">
			<stop  offset="0" style="stop-color:#F2BFAD"/>
			<stop  offset="0.2211" style="stop-color:#F2BFAD"/>
			<stop  offset="1" style="stop-color:#F2DAD4"/>
		</linearGradient>
		<polygon class="st31" points="782.3,325.8 789.5,317.7 781.4,310.5 774.2,318.6 		"/>
	</g>
	<g class="st0">
		<defs>
			<rect id="SVGID_58_" width="1009.8" height="488.4"/>
		</defs>
		<clipPath id="SVGID_59_">
			<use xlink:href="#SVGID_58_"  style="overflow:visible;"/>
		</clipPath>
		<polygon class="st32" points="775.6,314.2 777.8,314.2 773.6,309.1 772.3,310.1 		"/>
		<path class="st32" d="M766.2,306.7c2.7,2.8,5.6,4.3,6.6,3.3c0.2-0.2,0.9-0.9,1.1-1.1c1-0.9-0.2-4-2.8-6.9
			c-2.4-2.7-5.2-4.3-6.3-3.7l0,0l0,0c-0.1,0-0.1,0.1-0.2,0.1c-0.1,0.1-1.4,1.4-1.4,1.4C762.2,300.8,763.5,303.9,766.2,306.7
			 M764.2,299.5L764.2,299.5c1.3-0.6,3.9,0.8,6.1,3.3c2.2,2.5,3.3,5.2,2.6,6.3c-1.2,0.4-3.7-0.9-5.9-3.2
			C764.6,303.4,763.5,300.6,764.2,299.5"/>
		<path class="st33" d="M271.2,461c-1.1,1.7-1.8,5.8-1.9,6.8c-0.1,1-3.3,1.7-5.4,0s-4.5-3.9-4.6-7.4c-0.1-3.4,1.9-5.3,2.4-5.5
			C262.2,454.7,271.2,461,271.2,461"/>
	</g>
	<g class="st0">
		<defs>
			<path id="SVGID_60_" d="M250.4,454.2c-1.4,1.1-2,4.9-1.1,7.4c0.9,2.5,1,4.1,1.9,4c0.9-0.1,1.9-1.3,2,0c0.1,1.3-0.6,10.6,3,14.3
				c3.6,3.6,10.7,4,13.5,3.9c2.8-0.1,3.2-0.3,3-1.3c-0.2-1.1-0.3-4.3-2-4.3c-1.7,0-4.5,0.6-4.2-0.8c0.3-1.5,1.8-6.7,3.3-7.8
				c1.5-1.1,1.2-2.5,0.3-3c-0.9-0.5-5.7-1.7-7.6-4.5c-1.9-2.8-0.9-4.9-1.5-6.3c-0.6-1.4-4.5-2.9-4.5-2.9
				C254.8,453.8,251.9,453.1,250.4,454.2"/>
		</defs>
		<clipPath id="SVGID_61_">
			<use xlink:href="#SVGID_60_"  style="overflow:visible;"/>
		</clipPath>

			<linearGradient id="SVGID_62_" gradientUnits="userSpaceOnUse" x1="0" y1="488.3913" x2="1" y2="488.3913" gradientTransform="matrix(13.6784 -27.5435 -27.5435 -13.6784 13699.6924 7174.9663)">
			<stop  offset="0" style="stop-color:#4E9CFF"/>
			<stop  offset="1" style="stop-color:#176AD4"/>
		</linearGradient>
		<polygon class="st34" points="236.1,477.7 253.3,443.1 285.2,459 268.1,493.6 		"/>
	</g>
	<g class="st0">
		<defs>
			<path id="SVGID_63_" d="M300.4,425.8c0,0-11,10.6-11,18.7s9.1,8.2,12,8.2s4.4-2.4,3.7-1.3c-0.7,1,0.3,5.4,2.7,7.4
				c2.4,2.1,11.2,6.4,14,6.8c2.9,0.4,22.7-27.6,23.6-31.4c0.9-3.8-0.4-7.8-6.2-10c-1.5-0.6-4.5-0.8-8.2-0.8
				C320.6,423.4,304.5,425.2,300.4,425.8"/>
		</defs>
		<clipPath id="SVGID_64_">
			<use xlink:href="#SVGID_63_"  style="overflow:visible;"/>
		</clipPath>

			<linearGradient id="SVGID_65_" gradientUnits="userSpaceOnUse" x1="0" y1="488.3047" x2="1" y2="488.3047" gradientTransform="matrix(25.0407 -50.4231 -50.4231 -25.0407 24918.5176 12715.0068)">
			<stop  offset="0" style="stop-color:#1D0633"/>
			<stop  offset="0.8117" style="stop-color:#192B59"/>
			<stop  offset="1" style="stop-color:#192B59"/>
		</linearGradient>
		<polygon class="st35" points="272.5,457.6 300.7,400.7 363.4,431.8 335.1,488.7 		"/>
	</g>
	<g class="st0">
		<defs>
			<path id="SVGID_66_" d="M274.7,477.7c1.4,3.3,2.4,3.5,4.6,3.6c2.2,0.1,15.1-0.1,17.7,1.4c2.6,1.5,15,4.2,18.6,1.8
				c3.7-2.4-3.7-10-11.9-15c-8.2-5-31.4-7.7-31.4-7.7C271.3,464.7,273.3,474.4,274.7,477.7"/>
		</defs>
		<clipPath id="SVGID_67_">
			<use xlink:href="#SVGID_66_"  style="overflow:visible;"/>
		</clipPath>

			<linearGradient id="SVGID_68_" gradientUnits="userSpaceOnUse" x1="0" y1="488.4044" x2="1" y2="488.4044" gradientTransform="matrix(-31.9217 31.0655 31.0655 31.9217 -14866.6514 -15126.6016)">
			<stop  offset="0" style="stop-color:#1D0633"/>
			<stop  offset="0.9313" style="stop-color:#192B59"/>
			<stop  offset="1" style="stop-color:#192B59"/>
		</linearGradient>
		<polygon class="st36" points="331.8,474.8 294.6,510.9 258.8,474.1 295.9,437.9 		"/>
	</g>
	<g class="st0">
		<defs>
			<rect id="SVGID_69_" width="1009.8" height="488.4"/>
		</defs>
		<clipPath id="SVGID_70_">
			<use xlink:href="#SVGID_69_"  style="overflow:visible;"/>
		</clipPath>
		<path class="st37" d="M252.7,432.9c-2.7,6.1-1.6,15.3,3.9,20.7c5.5,5.4,37.1,20.3,44.1,24.2c7,3.9,14,9.4,18.5,5.5
			c4.5-3.9,5.6-7.3,3.2-11.6c-2.3-4.3-17.7-18.9-22.1-22.8c-4.4-3.9-3.1-11.3-1.5-14.9c1.7-3.5,5-7.2,4.4-9.8
			C302.6,421.6,252.7,432.9,252.7,432.9"/>
	</g>
	<g class="st0">
		<defs>
			<path id="SVGID_71_" d="M315.6,398.6c0.7,7.1,3.6,21.1,5.8,23.4c2.2,2.3,3.5,2.3,8.3,2c4.8-0.3,5.6-9.6,5.7-12.2
				c0.1-2.6-4.2-7.2-5.3-9.7c-1.1-2.5-1-13.2-1.1-18.1c-0.2-4.9,0-8.4-2.4-10.9C326.6,373.2,314.8,391.6,315.6,398.6"/>
		</defs>
		<clipPath id="SVGID_72_">
			<use xlink:href="#SVGID_71_"  style="overflow:visible;"/>
		</clipPath>

			<linearGradient id="SVGID_73_" gradientUnits="userSpaceOnUse" x1="0" y1="488.2539" x2="1" y2="488.2539" gradientTransform="matrix(-14.5978 11.8384 11.8384 14.5978 -5452.4062 -6730.6919)">
			<stop  offset="0" style="stop-color:#4E9CFF"/>
			<stop  offset="0.842" style="stop-color:#176AD4"/>
			<stop  offset="1" style="stop-color:#176AD4"/>
		</linearGradient>
		<polygon class="st38" points="360.6,404.1 323.1,434.5 289.8,393.5 327.3,363.1 		"/>
	</g>
	<g class="st0">
		<defs>
			<path id="SVGID_74_" d="M302.6,359.6c-1.1-0.1-9.1-0.5-12-1.2c-3-0.7-20.9,31.9-25.4,39.2c-4.6,7.3-19.8,32.5-16.2,35.4
				c3.6,2.8,31.9,3.6,39.8,0.8c8-2.8,14.7-4.7,16.7-9.9c2-5.1,14.4-32.1,17.4-35.6c3.1-3.5,6.9-10.2,4.8-13.7s-6.5-4.5-8.8-6.2
				c-2.3-1.7-10.8-11.2-10.8-11.2C306.8,357.7,303.6,359.7,302.6,359.6"/>
		</defs>
		<clipPath id="SVGID_75_">
			<use xlink:href="#SVGID_74_"  style="overflow:visible;"/>
		</clipPath>

			<linearGradient id="SVGID_76_" gradientUnits="userSpaceOnUse" x1="0" y1="488.3594" x2="1" y2="488.3594" gradientTransform="matrix(-72.7034 33.2521 33.2521 72.7034 -15908.6436 -35128.0391)">
			<stop  offset="0" style="stop-color:#4E9CFF"/>
			<stop  offset="0.9844" style="stop-color:#176AD4"/>
			<stop  offset="1" style="stop-color:#176AD4"/>
		</linearGradient>
		<polygon class="st39" points="359.8,422.9 259.9,468.6 215.2,370.9 315.2,325.2 		"/>
	</g>
	<g class="st0">
		<defs>
			<rect id="SVGID_77_" width="1009.8" height="488.4"/>
		</defs>
		<clipPath id="SVGID_78_">
			<use xlink:href="#SVGID_77_"  style="overflow:visible;"/>
		</clipPath>
		<path class="st40" d="M336,352.8c0.5-2,2.3-7.7-3.3-11.9c-6-4.4-11.1-2.3-14.7-0.8c-3.6,1.5-8.5,12.2-9.7,12.9
			c-1.1,0.6-0.1,1.8,0.6,3.4c0.6,1.6,3,3.3,5.2,3.5C316.4,360.2,336,352.8,336,352.8"/>
	</g>
	<g class="st0">
		<defs>
			<path id="SVGID_79_" d="M307.9,357.3c-0.1,0.9,2.6,8.8,3.3,11c0.7,2.2,0.5,6,1.2,6.3c0.7,0.2,1.5-2.9,4.6-3.6s-0.2-14.6-1.8-15.5
				c-1.6-0.9-5.3-2.3-5.3-2.3C309.6,354.6,308,356.4,307.9,357.3"/>
		</defs>
		<clipPath id="SVGID_80_">
			<use xlink:href="#SVGID_79_"  style="overflow:visible;"/>
		</clipPath>

			<linearGradient id="SVGID_81_" gradientUnits="userSpaceOnUse" x1="0" y1="488.4806" x2="1" y2="488.4806" gradientTransform="matrix(-9.5591 4.3261 4.3261 9.5591 -1794.6377 -4307.4282)">
			<stop  offset="0" style="stop-color:#F2BFAD"/>
			<stop  offset="1" style="stop-color:#F2DAD4"/>
		</linearGradient>
		<polygon class="st41" points="328.4,371.2 310,379.5 299.8,356.9 318.2,348.6 		"/>
	</g>
	<g class="st0">
		<defs>
			<rect id="SVGID_82_" width="1009.8" height="488.4"/>
		</defs>
		<clipPath id="SVGID_83_">
			<use xlink:href="#SVGID_82_"  style="overflow:visible;"/>
		</clipPath>
		<path class="st42" d="M335.8,352.4c1.2,0.5-3.6,8.7-4.9,10.5c-1.3,1.8-7.4,10-11.9,8.8c-4.3-1.2-7.5-6.5-7.4-10.7
			c0.1-4.2,1-5.2,0-5.5c-1-0.3-2.4-1.8-1.6-4.8c0.7-3,2.7-4.8,3.5-4.8s1.4,1.3,1.5,2.4c0.1,1-0.4,3-0.6,3.4c-0.2,0.4-0.9,1.5-0.3,2
			c0.6,0.4,2.7-3.7,4.2-4c1.5-0.3,4.3-0.6,5.1-3.1c0.3-1,2.5-2.5,4.5-0.6C329.9,348,331.9,350.6,335.8,352.4"/>
		<path class="st42" d="M261.9,425.1c5-2.2,9.1-2.3,10.8-2.4c1.7-0.1,4.6,1.1,5,1.8c0.4,0.7,0,1.1,0.3,1.6c0.3,0.5,1.7,1.3,1.6,2
			c-0.1,0.7-1.4,0.9-1.4,0.9s1.2,0.3,0.6,1.2c-0.6,0.9-1.2,0.8-2.1,0.4c-0.9-0.4-4.3-1.3-5.3-1.3c-1,0-2.6-0.2-2.6,0.3
			c0,0.5,1.8-0.1,2.5,0.4c0.7,0.5,1.9,1.4,2.6,2c0.7,0.6,0.7,1.5,0,1.6c-0.7,0.1-2.3-0.7-3.3-1c-1-0.3-3-0.3-3.9,0.1
			c-0.9,0.4-5.8,0.9-8.1,0.4c-2.4-0.5-3.4-1.2-4.1-2.5C253.4,429.2,261.9,425.1,261.9,425.1"/>
	</g>
	<g class="st0">
		<defs>
			<path id="SVGID_84_" d="M276.2,366.7c-2.7,3.6-26.2,16.2-27.9,23.8c-1.7,7.6-2.3,21.7-2.2,25.4c0.1,3.6,4.4,13.4,6.6,14.3
				c2.2,0.9,7.4,0.1,8.6-2.3c1.2-2.4,0-20.2,0.4-24.6c0.4-4.5,2.6-7.6,8.8-11.3c6.1-3.7,19.9-11.3,20.9-18.5c1-7.3,2.6-14-1-15
				c-0.5-0.2-1-0.2-1.5-0.2C284.4,358.2,278.7,363.5,276.2,366.7"/>
		</defs>
		<clipPath id="SVGID_85_">
			<use xlink:href="#SVGID_84_"  style="overflow:visible;"/>
		</clipPath>

			<linearGradient id="SVGID_86_" gradientUnits="userSpaceOnUse" x1="0" y1="488.3427" x2="1" y2="488.3427" gradientTransform="matrix(41.5831 20.9429 20.9429 -41.5831 -9976.4111 20691.8027)">
			<stop  offset="0" style="stop-color:#4E9CFF"/>
			<stop  offset="0.9844" style="stop-color:#176AD4"/>
			<stop  offset="1" style="stop-color:#176AD4"/>
		</linearGradient>
		<polygon class="st43" points="255.8,338.9 323.4,372.9 284.4,450.4 216.8,416.3 		"/>
	</g>
	<g class="st0">
		<defs>
			<path id="SVGID_87_" d="M340.5,388.1c-1.8,1.1-4.6,2.5-5.7,2.7c-1.1,0.1-3.8,4.6-3.8,6s-0.1,2.5-0.6,3.2
				c-0.4,0.7-4.6,10.8-6.5,13c-1.9,2.2-3.3,7.1,0,9.2c3.3,2.1,8.8,1.1,10.5-2.5c1.7-3.7,0.6-11.2,1.6-12.7c1-1.5,4.2-3.5,5-4.3
				c0.9-0.8,2.1-3.5,2.5-3.8c0.4-0.3,0.6-1.1,0.4-1.5c-0.2-0.4-0.3-1,0.2-1.5c0.5-0.5,0-1.8-0.4-2.3c-0.4-0.5-0.2-1.3,0.2-1.6
				c0.5-0.2,1.3-0.7,0.7-2c-0.5-1.3-1.7-0.9-1.7-0.9s-0.5-1.4-1.6-1.4C341.2,387.8,340.9,387.9,340.5,388.1"/>
		</defs>
		<clipPath id="SVGID_88_">
			<use xlink:href="#SVGID_87_"  style="overflow:visible;"/>
		</clipPath>

			<linearGradient id="SVGID_89_" gradientUnits="userSpaceOnUse" x1="0" y1="488.391" x2="1" y2="488.391" gradientTransform="matrix(8.3843 -21.3904 -21.3904 -8.3843 10770.4756 4524.5869)">
			<stop  offset="0" style="stop-color:#F2BFAD"/>
			<stop  offset="1" style="stop-color:#F2DAD4"/>
		</linearGradient>
		<polygon class="st44" points="308.2,419.4 323.9,379.4 357.6,392.7 341.9,432.7 		"/>
	</g>
	<g class="st0">
		<defs>
			<rect id="SVGID_90_" width="1009.8" height="488.4"/>
		</defs>
		<clipPath id="SVGID_91_">
			<use xlink:href="#SVGID_90_"  style="overflow:visible;"/>
		</clipPath>
		<polygon class="st45" points="340.5,389.9 343.3,389.3 345.4,386.4 343.8,385.2 		"/>
		<path class="st45" d="M345.9,377.4c-2.3,3.8-3.1,7.5-1.8,8.4c0.3,0.2,1.2,0.7,1.5,0.9c1.3,0.9,4.4-1.4,6.9-5.1
			c2.3-3.5,3.2-7,2.2-8.1l0,0l0,0c-0.1-0.1-0.1-0.1-0.2-0.2c-0.1-0.1-1.9-1.2-1.9-1.2C351.2,371.3,348.2,373.6,345.9,377.4
			 M353.3,373l0.1,0.1c0.9,1.2,0.1,4.5-2,7.7c-2.1,3.2-4.8,5.3-6.3,4.8c-0.8-1.2-0.1-4.4,1.8-7.6C349.1,374.7,351.9,372.6,353.3,373
			"/>
		<path class="st46" d="M591.7,162.2c0,3,0.5,5.7,0.7,7.2c0.1,1.5-1.4,5.3-4,5.3c-2.6,0-6,0.8-6.8-2.1c-0.9-2.9,0.4-11.2,1.8-11.4
			C584.8,161,591.7,162.2,591.7,162.2"/>
	</g>
	<g class="st0">
		<defs>
			<path id="SVGID_92_" d="M589.3,169.9c-1.5,1-7.5,1.3-6.9,2.9c0.6,1.6,3.7,5,6.2,7.2c2.5,2.2,10.5,2.7,16.5,3.5
				c5.9,0.9,14.3-1,12.7-3.9c-1.6-2.9-9-3.8-13.6-5.1c-4.6-1.3-7.5-7.7-11.1-8.3c-0.1,0-0.1,0-0.2,0
				C591.5,166.3,590.8,169,589.3,169.9"/>
		</defs>
		<clipPath id="SVGID_93_">
			<use xlink:href="#SVGID_92_"  style="overflow:visible;"/>
		</clipPath>

			<linearGradient id="SVGID_94_" gradientUnits="userSpaceOnUse" x1="0" y1="488.3741" x2="1" y2="488.3741" gradientTransform="matrix(-35.6384 0 0 35.6384 634.6251 -17229.4922)">
			<stop  offset="0" style="stop-color:#4E9CFF"/>
			<stop  offset="1" style="stop-color:#176AD4"/>
		</linearGradient>
		<rect x="581.8" y="166.3" class="st47" width="37.6" height="18.1"/>
	</g>
	<g class="st0">
		<defs>
			<path id="SVGID_95_" d="M581,189.7c0.7,3.1,2.7,4.9,5.2,6.2c2.5,1.3,4.5,0.7,4.7,0c0.2-0.7,0.9-0.1,2.1,0.4
				c1.2,0.5,6.9,3.7,17.7,5.2c10.8,1.5,14.7-7,14.2-9.3c-0.7-3.3-8.4-3.6-13.7-5.8c-5.3-2.2-13.3-6-20.8-10.9
				C590.5,175.5,580.4,186.6,581,189.7"/>
		</defs>
		<clipPath id="SVGID_96_">
			<use xlink:href="#SVGID_95_"  style="overflow:visible;"/>
		</clipPath>

			<linearGradient id="SVGID_97_" gradientUnits="userSpaceOnUse" x1="0" y1="488.3568" x2="1" y2="488.3568" gradientTransform="matrix(-33.8654 28.2096 28.2096 33.8654 -13160.3467 -16360.0068)">
			<stop  offset="0" style="stop-color:#4E9CFF"/>
			<stop  offset="1.834280e-02" style="stop-color:#4E9CFF"/>
			<stop  offset="0.8834" style="stop-color:#176AD4"/>
			<stop  offset="1" style="stop-color:#176AD4"/>
		</linearGradient>
		<polygon class="st48" points="639,191.8 598.9,225.2 566.9,186.8 607,153.3 		"/>
	</g>
	<g class="st0">
		<defs>
			<path id="SVGID_98_" d="M527.2,96.5c-3.3,2.1-5.2,10.3-1.2,14.5c4,4.2,24,12,29.8,13.2c5.9,1.2,21.6-2.9,24.4-3
				c2.8-0.1-0.8,11.8-1.2,16.1c-0.4,4.3-0.5,25.5,0.5,26.8c1,1.4,17.6,1,19.5,0.8c1.8-0.2,1.5-2.3,2.1-7.2c0.5-4.9,1-48.1,0.5-56
				c-0.4-7.9-19.8-6.5-26.4-6.5s-29.7-0.5-40.1-0.6c0,0-0.3,0-0.7,0C533,94.7,529.7,94.9,527.2,96.5"/>
		</defs>
		<clipPath id="SVGID_99_">
			<use xlink:href="#SVGID_98_"  style="overflow:visible;"/>
		</clipPath>

			<linearGradient id="SVGID_100_" gradientUnits="userSpaceOnUse" x1="0" y1="488.3676" x2="1" y2="488.3676" gradientTransform="matrix(78.0211 0 0 -78.0211 523.6906 38232.7344)">
			<stop  offset="0" style="stop-color:#1D0633"/>
			<stop  offset="1" style="stop-color:#192B59"/>
		</linearGradient>
		<rect x="521.9" y="94" class="st49" width="80" height="71.6"/>
	</g>
	<g class="st0">
		<defs>
			<rect id="SVGID_101_" width="1009.8" height="488.4"/>
		</defs>
		<clipPath id="SVGID_102_">
			<use xlink:href="#SVGID_101_"  style="overflow:visible;"/>
		</clipPath>
		<path class="st50" d="M526.8,99.3c11.3,3.3,34,10,37.4,17.7c4.5,10.1,26.9,54.1,27.8,57.8c0.8,3.8,0.4,5.3-2.4,8
			c-2.8,2.7-6.5,9.9-9.9,7c-3.4-2.9-23.3-30.2-27-38.3c-3.7-8.1-2.7-16.3-13.1-18.3c-10.4-2-25.2-6.6-31.5-7.2
			c-6.2-0.7-10.6-6.1-11.6-10.9C495.5,110.2,514.2,95.7,526.8,99.3"/>
	</g>
	<g class="st0">
		<defs>
			<path id="SVGID_103_" d="M553.8,50.9c-2.6,2.2-16.2,0.5-18.6-0.8c-2.4-1.3-4.2-6.7-8.9-8c-3.1-0.9-3.8,6.8-3.8,6.8l10.8,19.6
				c0,0,23.2,0.4,26.5-1.7c3.3-2,6.6-9.1,9.2-12.4c2.6-3.2,5.4-5.3,4.9-9.4c-0.4-3.3-10.1-6.3-10.1-6.3
				C562.7,40.8,556.4,48.7,553.8,50.9"/>
		</defs>
		<clipPath id="SVGID_104_">
			<use xlink:href="#SVGID_103_"  style="overflow:visible;"/>
		</clipPath>

			<linearGradient id="SVGID_105_" gradientUnits="userSpaceOnUse" x1="0" y1="488.3797" x2="1" y2="488.3797" gradientTransform="matrix(-44.2751 -27.8776 -27.8776 44.2751 14195.8086 -21548.8906)">
			<stop  offset="0" style="stop-color:#4E9CFF"/>
			<stop  offset="0.9844" style="stop-color:#176AD4"/>
			<stop  offset="1" style="stop-color:#176AD4"/>
		</linearGradient>
		<polygon class="st51" points="559.7,92.2 508.9,60.2 537.3,15.2 588.1,47.2 		"/>
	</g>
	<g class="st0">
		<defs>
			<rect id="SVGID_106_" width="1009.8" height="488.4"/>
		</defs>
		<clipPath id="SVGID_107_">
			<use xlink:href="#SVGID_106_"  style="overflow:visible;"/>
		</clipPath>
		<path class="st52" d="M573.7,12.8c-3.1,0.2-7.3,4.9-7.3,4.9c-0.4,1.2-0.4,5.6-0.4,7.2c0,1.6,0.5,6.9,0,8.9c-0.5,2-2.7,5.3-2.4,6.2
			c0.2,0.9,5,7.8,6.4,7.7c1.3,0,2-4.3,2-5.3c0-0.9,1-5.9,2-6.2c1-0.3,2.9-4.1,3.1-5.4s0.7-8.1,0.8-8.8s1.1-4.4,1.5-5.8
			C579.6,14.7,576.8,12.6,573.7,12.8 M573.9,19.3c0,0.2-0.6,0.6-1.2,0.4c-0.6-0.2-0.3-1.1,0-2.1c0,0,0.9-0.3,1.2,0
			C574.2,18,574,19.1,573.9,19.3"/>
	</g>
	<g class="st0">
		<defs>
			<path id="SVGID_108_" d="M566.5,18.1c0.4,0.8,0.8,2.5,0.7,3.8c-0.1,1.3-0.5,3.3-0.2,3.5c0.4,0.1,0.6-1.7,1.1-2.5
				c0.5-0.8,0.2-1.8,0-2.7s-0.5-1.8-0.2-2.3c0.1-0.1,0-0.2-0.1-0.2C567.5,17.6,566.5,18.1,566.5,18.1"/>
		</defs>
		<clipPath id="SVGID_109_">
			<use xlink:href="#SVGID_108_"  style="overflow:visible;"/>
		</clipPath>

			<linearGradient id="SVGID_110_" gradientUnits="userSpaceOnUse" x1="0" y1="488.3784" x2="1" y2="488.3784" gradientTransform="matrix(0.9965 8.1563 8.1563 -0.9965 -3416.2942 504.3528)">
			<stop  offset="0" style="stop-color:#F2BFAD"/>
			<stop  offset="0.3836" style="stop-color:#F2CABD"/>
			<stop  offset="1" style="stop-color:#F2DAD4"/>
		</linearGradient>
		<polygon class="st53" points="568.6,17.4 569.5,25.4 566.5,25.7 565.5,17.8 		"/>
	</g>
	<g class="st0">
		<defs>
			<path id="SVGID_111_" d="M572.8,19.7c-0.6-0.2-0.3-1.1,0-2.1c0,0,0.9-0.3,1.2,0c0.2,0.3,0,1.4,0,1.7c0,0.2-0.4,0.5-0.8,0.5
				C573,19.8,572.9,19.7,572.8,19.7 M572.8,16.9c-1.2,0-3.8,0.5-3.8,0.5v0.8c0,0,0.8,0.5,1.2,1.4c0.7,1.3,0.9,1.2,1,2.7
				c0,1.5-0.5,3.5-0.2,3.8c0.3,0.3,1.5,2,1.6,4c0.1,2,3.1-1.8,3.1-3c0-1.1,1.6-3.5,1.8-4.1c0.3-0.6,0.3-1.8,0.7-3.5
				c0.4-1.7,0.5-1.6,0.5-2.2c-0.1-0.5-3.3-0.6-5.1-0.6C573.3,16.9,573,16.9,572.8,16.9"/>
		</defs>
		<clipPath id="SVGID_112_">
			<use xlink:href="#SVGID_111_"  style="overflow:visible;"/>
		</clipPath>

			<linearGradient id="SVGID_113_" gradientUnits="userSpaceOnUse" x1="0" y1="488.3132" x2="1" y2="488.3132" gradientTransform="matrix(1.8201 14.8978 14.8978 -1.8201 -6701.7949 905.6014)">
			<stop  offset="0" style="stop-color:#F2BFAD"/>
			<stop  offset="0.3836" style="stop-color:#F2CABD"/>
			<stop  offset="1" style="stop-color:#F2DAD4"/>
		</linearGradient>
		<polygon class="st54" points="578.7,15.8 580.7,32.1 569.2,33.5 567.2,17.2 		"/>
	</g>
	<g class="st0">
		<defs>
			<rect id="SVGID_114_" width="1009.8" height="488.4"/>
		</defs>
		<clipPath id="SVGID_115_">
			<use xlink:href="#SVGID_114_"  style="overflow:visible;"/>
		</clipPath>
		<path class="st55" d="M587.5,17.5l-52.4,2.2c-1,0-1.9-0.7-2-1.8c-0.1-1,0.7-1.9,1.7-2.1l52.1-5.4c2-0.2,3.8,1.3,3.9,3.4
			C591,15.8,589.4,17.4,587.5,17.5"/>
		<path class="st56" d="M542.7,14.5c-1.3,1.9-1.4,4.9-1.2,7.3c0.2,2.4,1.6,4.7,1.6,6s-0.6,6.1-1.2,7.2c-0.6,1.1,7.1,4.6,7.2,4
			c0.2-0.5-0.3-2.8,0.3-4s3.2-2.7,3.3-4.3c0.1-1.5,0.5-8.4,0.5-9.6c-0.1-1.2,0.7-3,1.4-4c0.6-1,1.2-3.1,1.2-3.7
			c0-0.6,0.2-1.5-0.6-1.5c-0.8,0-0.7,1.8-1.2,1.7c-0.5-0.1-1.6-0.7-2.6-0.7s-2.4,0.4-3.1,0.3c-0.8,0-2.2-0.1-3,0.1
			C544.4,13.4,543.2,13.7,542.7,14.5"/>
	</g>
	<g class="st0">
		<defs>
			<path id="SVGID_116_" d="M491.2,33.6c-1.3,0.4-10.6,4.5-8.9,24.7s6.7,37.6,7.7,41.2c1,3.6,1.3,22.4,5.9,22.7
				c4.7,0.4,17.9-15.6,22.9-17.4c5.1-1.8,19.8-9.8,23.4-9.8s-8.6-11.7-8.7-18.2c-0.1-6.5-1.1-31.5-5.1-33.8c-4-2.3-11.7-3-12.9-4.8
				c-1.2-1.8-5.2-6.8-7.8-8c-2.6-1.2-9.8-1.5-9.8-1.5C496.6,30.4,492.6,33.2,491.2,33.6"/>
		</defs>
		<clipPath id="SVGID_117_">
			<use xlink:href="#SVGID_116_"  style="overflow:visible;"/>
		</clipPath>

			<linearGradient id="SVGID_118_" gradientUnits="userSpaceOnUse" x1="0" y1="488.4707" x2="1" y2="488.4707" gradientTransform="matrix(-45.7661 40.1187 40.1187 45.7661 -19061.8906 -22298.7207)">
			<stop  offset="0" style="stop-color:#4E9CFF"/>
			<stop  offset="0.9844" style="stop-color:#176AD4"/>
			<stop  offset="1" style="stop-color:#176AD4"/>
		</linearGradient>
		<polygon class="st57" points="592.4,81.8 509,154.9 434.1,69.5 517.5,-3.6 		"/>
	</g>
	<g class="st0">
		<defs>
			<path id="SVGID_119_" d="M498.5,24c-0.2,2-2.2,5.5-1,6.1c1.2,0.6,7.5,3.8,10.1,5.7c2.6,1.9,4.8,4.5,5.6,4.1
				c0.8-0.4-0.2-2.8-0.5-4.5c-0.2-1.8,0-2.2,0-3.6c0-1.4-4.1-9-7.6-9.1c-0.1,0-0.2,0-0.4,0C501.5,22.6,498.5,24,498.5,24"/>
		</defs>
		<clipPath id="SVGID_120_">
			<use xlink:href="#SVGID_119_"  style="overflow:visible;"/>
		</clipPath>

			<linearGradient id="SVGID_121_" gradientUnits="userSpaceOnUse" x1="0" y1="488.3543" x2="1" y2="488.3543" gradientTransform="matrix(16.3378 0 0 -16.3378 497.1954 8010.0107)">
			<stop  offset="0" style="stop-color:#F2BFAD"/>
			<stop  offset="1" style="stop-color:#F2DAD4"/>
		</linearGradient>
		<rect x="496.4" y="22.6" class="st58" width="17.6" height="17.6"/>
	</g>
	<g class="st0">
		<defs>
			<rect id="SVGID_122_" width="1009.8" height="488.4"/>
		</defs>
		<clipPath id="SVGID_123_">
			<use xlink:href="#SVGID_122_"  style="overflow:visible;"/>
		</clipPath>
		<path class="st59" d="M498.7,29.8c-2.8,0-5.7-5-6.3-8.7c-0.6-3.6-1.6-9.9,3.4-15.4c6.7-7.4,14.5-6.4,18.9-4.1
			c4.4,2.3,10.2,0.7,8.6,4.6c-1.6,3.9-2.4,7.2-6.3,7.4c-3.9,0.2-11.7,1.1-11.6,5.7C505.5,24,501.5,29.8,498.7,29.8"/>
		<path class="st60" d="M516.6,9c2.7,0,2.8,3.9,2.3,5.2c-0.5,1.2-0.7,2,0.2,2.9c0.9,0.9,2.9,3,2.3,3.8c-0.6,0.8-2.1,1-2,1.7
			c0,0.7,0,7.1-1.2,8.9c-1.3,1.8-6.6,2.3-9.9,0.8c-3.3-1.4-6.4-5.5-7.1-6.9c-0.7-1.4-1.7-0.2-3.8-2.1c-2.1-1.8-3.1-4.1-1.7-5.9
			c1.2-1.5,2.7-0.7,3.3,0.1c0.5,0.8,1.9,3.6,3.5,3.4C505.7,20.4,501.6,8.8,516.6,9"/>
	</g>
	<g class="st0">
		<defs>
			<path id="SVGID_124_" d="M491.7,33.4c-2.7,0.5-5.1,2.5-7.8,8.7s-2.2,14.2-1.6,16.2c2.7,7.9,34.6,17.4,40.1,15.9
				c8.2-2.2,17-13,19-16.1c2-3,10.6-17.9,9.3-19.3c-1.3-1.5-7.1-5.4-9.3-4.6c-4.4,1.8-17.7,20.4-23.4,20.5
				c-5.7,0.1-10.8-8.6-12.7-11.9c-3.5-6.3-11.4-9.5-13.4-9.5C491.8,33.4,491.8,33.4,491.7,33.4"/>
		</defs>
		<clipPath id="SVGID_125_">
			<use xlink:href="#SVGID_124_"  style="overflow:visible;"/>
		</clipPath>

			<linearGradient id="SVGID_126_" gradientUnits="userSpaceOnUse" x1="0" y1="488.3133" x2="1" y2="488.3133" gradientTransform="matrix(43.3639 53.7962 53.7962 -43.3639 -25769.9863 21208.4141)">
			<stop  offset="0" style="stop-color:#4E9CFF"/>
			<stop  offset="0.9844" style="stop-color:#176AD4"/>
			<stop  offset="1" style="stop-color:#176AD4"/>
		</linearGradient>
		<polygon class="st61" points="524.1,-1.3 572.7,59 509,110.3 460.4,50 		"/>
	</g>
	<g class="st0">
		<defs>
			<rect id="SVGID_127_" width="1009.8" height="488.4"/>
		</defs>
		<clipPath id="SVGID_128_">
			<use xlink:href="#SVGID_127_"  style="overflow:visible;"/>
		</clipPath>
		<path class="st62" d="M590.7,13.9c0,1.6-1.1,3-2.5,3c-1.4,0-2.5-1.3-2.5-3c0-1.6,1.1-3,2.5-3C589.6,11,590.7,12.3,590.7,13.9"/>
		<path class="st63" d="M573.5,10.4c1.3,0,1.6,1.1,1.5,1.4c0,0.3-0.6,1-1.8,1c-1.2-0.1-1.4-0.9-1.4-1.2
			C571.8,11.4,571.9,10.4,573.5,10.4"/>
		<path class="st63" d="M569.5,11c1.3,0,1.6,1.1,1.5,1.4c0,0.3-0.6,1-1.8,1c-1.2,0-1.4-0.9-1.4-1.2C567.9,12,568,11,569.5,11"/>
	</g>
</g>
</svg>
